<?xml version="1.0" encoding="UTF-8"?>
<!DOCTYPE svg PUBLIC "-//W3C//DTD SVG 1.1//EN" "http://www.w3.org/Graphics/SVG/1.1/DTD/svg11.dtd">
<svg xmlns="http://www.w3.org/2000/svg" version="1.1" width="796px" height="771px" style="shape-rendering:geometricPrecision; text-rendering:geometricPrecision; image-rendering:optimizeQuality; fill-rule:evenodd; clip-rule:evenodd" xmlns:xlink="http://www.w3.org/1999/xlink">
<g><path style="opacity:0.765" fill="#a4b2af" d="M 414.5,17.5 C 408.167,17.5 401.833,17.5 395.5,17.5C 401.687,15.5378 408.02,15.5378 414.5,17.5 Z"/></g>
<g><path style="opacity:0.999" fill="#f5f5f6" d="M 395.5,17.5 C 401.833,17.5 408.167,17.5 414.5,17.5C 416.292,17.366 417.958,17.6993 419.5,18.5C 419.369,19.3764 419.702,20.0431 420.5,20.5C 424.785,21.2063 427.952,22.873 430,25.5C 430.986,24.8288 432.153,24.8288 433.5,25.5C 436.455,27.1223 439.122,29.1223 441.5,31.5C 442.08,33.7488 443.413,35.4154 445.5,36.5C 449.01,39.3577 451.343,43.0243 452.5,47.5C 452.427,49.0269 453.094,50.0269 454.5,50.5C 470.106,85.3784 485.439,120.378 500.5,155.5C 500.166,158.491 501.166,160.824 503.5,162.5C 509.011,173.53 514.011,184.863 518.5,196.5C 518.821,198.048 519.821,198.715 521.5,198.5C 537.862,201.851 553.529,207.184 568.5,214.5C 569.287,216.104 570.62,216.771 572.5,216.5C 578.426,218.957 583.426,222.624 587.5,227.5C 588.08,229.749 589.413,231.415 591.5,232.5C 592.674,233.514 593.34,234.847 593.5,236.5C 594.2,240.798 594.533,245.131 594.5,249.5C 593.773,255.396 591.107,260.229 586.5,264C 575.987,271.764 564.32,276.43 551.5,278C 549.509,277.626 547.842,276.793 546.5,275.5C 545.336,271.948 544.336,267.948 543.5,263.5C 544.203,261.284 545.536,259.451 547.5,258C 554.652,254.923 561.652,251.59 568.5,248C 570.612,247.094 571.445,245.594 571,243.5C 566.362,239.54 561.195,236.373 555.5,234C 543.838,229.504 532.171,225.337 520.5,221.5C 518.485,220.076 516.152,219.41 513.5,219.5C 502.85,217.37 492.184,215.37 481.5,213.5C 481.082,212.778 480.416,212.278 479.5,212C 476.518,211.502 473.518,211.335 470.5,211.5C 469.5,211.5 468.5,211.5 467.5,211.5C 463.79,209.864 459.79,209.198 455.5,209.5C 419.133,206.594 382.8,206.927 346.5,210.5C 341.878,210.156 337.545,210.823 333.5,212.5C 300.821,217.004 269.487,226.171 239.5,240C 237.833,241.667 236.167,243.333 234.5,245C 238.024,248.262 242.024,250.762 246.5,252.5C 248.09,254.821 250.423,255.821 253.5,255.5C 257.112,256.243 260.112,257.91 262.5,260.5C 264.22,263.889 264.887,267.556 264.5,271.5C 260.516,271.472 259.516,273.139 261.5,276.5C 261.082,277.222 260.416,277.722 259.5,278C 245.984,278.069 233.984,273.903 223.5,265.5C 223.027,264.094 222.027,263.427 220.5,263.5C 206.939,250.213 207.272,237.046 221.5,224C 231.24,216.964 241.907,211.797 253.5,208.5C 256.716,208.655 259.383,207.655 261.5,205.5C 261.833,205.5 262.167,205.5 262.5,205.5C 266.162,205.277 269.495,204.277 272.5,202.5C 278.812,200.707 284.979,198.374 291,195.5C 313.667,144.833 336.333,94.1667 359,43.5C 367.157,29.1722 379.324,20.5056 395.5,17.5 Z M 421.5,44.5 C 421.973,45.9063 422.973,46.573 424.5,46.5C 429.313,51.4461 433.147,57.1127 436,63.5C 454.646,105.957 473.146,148.457 491.5,191C 443.573,182.835 395.573,181.668 347.5,187.5C 342.586,187.362 337.919,188.028 333.5,189.5C 332.833,189.5 332.167,189.5 331.5,189.5C 327.625,189.896 323.792,190.562 320,191.5C 319.235,191.43 318.735,191.097 318.5,190.5C 325.593,175.311 332.427,159.977 339,144.5C 346.167,140 353.333,135.5 360.5,131C 365.077,127.948 367.743,123.782 368.5,118.5C 368.828,115.499 367.828,113.166 365.5,111.5C 362.215,107.976 358.548,107.643 354.5,110.5C 356.303,105.089 358.303,99.7558 360.5,94.5C 362.07,91.6865 363.403,88.6865 364.5,85.5C 369.098,75.5368 373.598,65.5368 378,55.5C 389.322,39.0001 403.822,35.3335 421.5,44.5 Z"/></g>
<g><path style="opacity:1" fill="#b1b5ba" d="M 419.5,18.5 C 424.764,19.7986 429.431,22.1319 433.5,25.5C 432.153,24.8288 430.986,24.8288 430,25.5C 427.952,22.873 424.785,21.2063 420.5,20.5C 419.702,20.0431 419.369,19.3764 419.5,18.5 Z"/></g>
<g><path style="opacity:0.549" fill="#7c7b81" d="M 441.5,31.5 C 443.587,32.5846 444.92,34.2512 445.5,36.5C 443.413,35.4154 442.08,33.7488 441.5,31.5 Z"/></g>
<g><path style="opacity:0.576" fill="#838189" d="M 421.5,44.5 C 423.027,44.427 424.027,45.0937 424.5,46.5C 422.973,46.573 421.973,45.9063 421.5,44.5 Z"/></g>
<g><path style="opacity:0.278" fill="#79777f" d="M 452.5,47.5 C 453.906,47.9731 454.573,48.9731 454.5,50.5C 453.094,50.0269 452.427,49.0269 452.5,47.5 Z"/></g>
<g><path style="opacity:0.341" fill="#7e838a" d="M 495.5,66.5 C 498.304,65.3622 501.304,65.1955 504.5,66C 505.942,66.3768 506.942,67.2101 507.5,68.5C 503.7,66.8568 499.7,66.1901 495.5,66.5 Z"/></g>
<g><path style="opacity:0.999" fill="#e9ebec" d="M 300.5,65.5 C 313.45,64.9431 318.616,70.9431 316,83.5C 308.63,92.7318 301.296,92.7318 294,83.5C 291.137,75.584 293.303,69.584 300.5,65.5 Z"/></g>
<g><path style="opacity:0.999" fill="#f0f0f2" d="M 495.5,66.5 C 499.7,66.1901 503.7,66.8568 507.5,68.5C 509.262,69.2623 510.262,70.5956 510.5,72.5C 510.5,76.1667 510.5,79.8333 510.5,83.5C 504.524,91.6909 497.691,92.3576 490,85.5C 486.34,79.284 486.84,73.4507 491.5,68C 492.745,67.2086 494.078,66.7086 495.5,66.5 Z"/></g>
<g><path style="opacity:0.878" fill="#a2a2aa" d="M 510.5,72.5 C 513.167,76.1667 513.167,79.8333 510.5,83.5C 510.5,79.8333 510.5,76.1667 510.5,72.5 Z"/></g>
<g><path style="opacity:1" fill="#b2b7bb" d="M 267.5,86.5 C 264.484,85.9413 261.484,85.2746 258.5,84.5C 257.808,85.0253 257.308,85.6919 257,86.5C 256.329,85.7476 255.496,85.4142 254.5,85.5C 258.248,83.034 262.248,82.8673 266.5,85C 267.056,85.3826 267.389,85.8826 267.5,86.5 Z"/></g>
<g><path style="opacity:0.999" fill="#f5f5f6" d="M 555.5,87.5 C 556.552,89.256 558.219,89.9227 560.5,89.5C 561.058,90.7899 562.058,91.6232 563.5,92C 563.167,92.3333 562.833,92.6667 562.5,93C 564.473,93.4955 566.473,93.6621 568.5,93.5C 577.147,96.8202 585.147,101.154 592.5,106.5C 593.421,108.269 594.588,109.935 596,111.5C 596.333,111.167 596.667,110.833 597,110.5C 598.33,111.582 599.83,112.249 601.5,112.5C 603.027,112.427 604.027,113.094 604.5,114.5C 604.351,115.552 604.517,116.552 605,117.5C 606.073,116.72 607.24,116.887 608.5,118C 609.211,119.255 610.044,120.421 611,121.5C 611.986,120.829 613.153,120.829 614.5,121.5C 616.027,121.427 617.027,122.094 617.5,123.5C 618.035,125.446 619.368,126.446 621.5,126.5C 626.683,130.26 631.683,134.26 636.5,138.5C 636.5,140.5 637.5,141.5 639.5,141.5C 647.167,148.5 654.5,155.833 661.5,163.5C 661.738,165.404 662.738,166.738 664.5,167.5C 666.167,168.5 667.5,169.833 668.5,171.5C 668.738,173.404 669.738,174.738 671.5,175.5C 673.262,176.262 674.262,177.596 674.5,179.5C 675.419,182.089 677.086,184.089 679.5,185.5C 679.738,187.404 680.738,188.738 682.5,189.5C 688.274,196.28 693.274,203.613 697.5,211.5C 697.427,213.027 698.094,214.027 699.5,214.5C 705.89,222.771 710.89,231.938 714.5,242C 713.896,244.584 713.063,247.084 712,249.5C 711.184,250.823 710.017,251.489 708.5,251.5C 705.14,251.616 701.807,251.949 698.5,252.5C 697.738,250.738 696.404,249.738 694.5,249.5C 682.149,226.787 667.816,205.453 651.5,185.5C 651.144,183.81 650.144,182.81 648.5,182.5C 639.167,172.5 629.5,162.833 619.5,153.5C 619.027,152.094 618.027,151.427 616.5,151.5C 606.425,143.416 596.092,135.75 585.5,128.5C 585.027,127.094 584.027,126.427 582.5,126.5C 567.102,118.05 551.602,109.716 536,101.5C 532.085,95.2388 532.918,89.7388 538.5,85C 544.689,82.6476 550.356,83.4809 555.5,87.5 Z"/></g>
<g><path style="opacity:1" fill="#bab9c0" d="M 364.5,85.5 C 363.403,88.6865 362.07,91.6865 360.5,94.5C 360.67,93.1779 360.337,92.0113 359.5,91C 361.192,89.5993 361.859,87.7659 361.5,85.5C 362.5,85.5 363.5,85.5 364.5,85.5 Z"/></g>
<g><path style="opacity:0.999" fill="#f3f3f4" d="M 267.5,86.5 C 270.403,88.3047 271.736,90.9714 271.5,94.5C 271.44,99.0706 269.44,102.571 265.5,105C 242.558,114.174 221.558,126.341 202.5,141.5C 202.167,140.167 201.833,140.167 201.5,141.5C 162.499,170.331 131.999,206.331 110,249.5C 105.504,253.786 100.67,254.453 95.5,251.5C 95.0269,250.094 94.0269,249.427 92.5,249.5C 90.1385,246.576 89.3051,243.243 90,239.5C 126.014,167.983 180.847,116.65 254.5,85.5C 255.496,85.4142 256.329,85.7476 257,86.5C 257.308,85.6919 257.808,85.0253 258.5,84.5C 261.484,85.2746 264.484,85.9413 267.5,86.5 Z"/></g>
<g><path style="opacity:1" fill="#a1a8ac" d="M 555.5,87.5 C 557.553,87.4021 559.22,88.0687 560.5,89.5C 558.219,89.9227 556.552,89.256 555.5,87.5 Z"/></g>
<g><path style="opacity:1" fill="#bfc0c5" d="M 560.5,89.5 C 563.721,89.8961 566.388,91.2295 568.5,93.5C 566.473,93.6621 564.473,93.4955 562.5,93C 562.833,92.6667 563.167,92.3333 563.5,92C 562.058,91.6232 561.058,90.7899 560.5,89.5 Z"/></g>
<g><path style="opacity:1" fill="#b4b4bb" d="M 592.5,106.5 C 596.054,107.769 599.054,109.769 601.5,112.5C 599.83,112.249 598.33,111.582 597,110.5C 596.667,110.833 596.333,111.167 596,111.5C 594.588,109.935 593.421,108.269 592.5,106.5 Z"/></g>
<g><path style="opacity:1" fill="#c0bdc9" d="M 365.5,111.5 C 361.865,110.421 358.199,110.421 354.5,111.5C 354.5,111.167 354.5,110.833 354.5,110.5C 358.548,107.643 362.215,107.976 365.5,111.5 Z"/></g>
<g><path style="opacity:0.952" fill="#b8b9be" d="M 604.5,114.5 C 608.392,116.062 611.725,118.395 614.5,121.5C 613.153,120.829 611.986,120.829 611,121.5C 610.044,120.421 609.211,119.255 608.5,118C 607.24,116.887 606.073,116.72 605,117.5C 604.517,116.552 604.351,115.552 604.5,114.5 Z"/></g>
<g><path style="opacity:0.541" fill="#8d8e97" d="M 617.5,123.5 C 619.23,124.026 620.564,125.026 621.5,126.5C 619.368,126.446 618.035,125.446 617.5,123.5 Z"/></g>
<g><path style="opacity:0.376" fill="#807e86" d="M 582.5,126.5 C 584.027,126.427 585.027,127.094 585.5,128.5C 583.973,128.573 582.973,127.906 582.5,126.5 Z"/></g>
<g><path style="opacity:0.569" fill="#7e7b87" d="M 636.5,138.5 C 637.833,139.167 638.833,140.167 639.5,141.5C 637.5,141.5 636.5,140.5 636.5,138.5 Z"/></g>
<g><path style="opacity:0.008" fill="#000000" d="M 201.5,141.5 C 201.833,141.5 202.167,141.5 202.5,141.5C 202.315,142.17 201.981,142.17 201.5,141.5 Z"/></g>
<g><path style="opacity:0.999" fill="#edeef0" d="M 260.5,145.5 C 260.296,148.518 259.963,151.518 259.5,154.5C 259.5,155.167 259.167,155.5 258.5,155.5C 255.5,155.5 252.5,155.5 249.5,155.5C 243.053,150.889 243.053,146.055 249.5,141C 252.167,140.333 254.833,140.333 257.5,141C 259.141,142.129 260.141,143.629 260.5,145.5 Z"/></g>
<g><path style="opacity:0.784" fill="#a5a6ad" d="M 260.5,145.5 C 261.152,146.449 261.486,147.615 261.5,149C 261.607,151.221 260.94,153.054 259.5,154.5C 259.963,151.518 260.296,148.518 260.5,145.5 Z"/></g>
<g><path style="opacity:0.596" fill="#88868f" d="M 616.5,151.5 C 618.027,151.427 619.027,152.094 619.5,153.5C 617.973,153.573 616.973,152.906 616.5,151.5 Z"/></g>
<g><path style="opacity:0.843" fill="#aaabb3" d="M 249.5,155.5 C 252.5,155.5 255.5,155.5 258.5,155.5C 255.447,157.88 252.447,157.88 249.5,155.5 Z"/></g>
<g><path style="opacity:1" fill="#95959f" d="M 500.5,155.5 C 502.065,157.509 503.065,159.843 503.5,162.5C 501.166,160.824 500.166,158.491 500.5,155.5 Z"/></g>
<g><path style="opacity:0.584" fill="#95969c" d="M 587.5,164.5 C 584.098,164.342 580.764,164.676 577.5,165.5C 577.611,164.883 577.944,164.383 578.5,164C 581.696,163.195 584.696,163.362 587.5,164.5 Z"/></g>
<g><path style="opacity:0.998" fill="#edeeef" d="M 587.5,164.5 C 590.5,165.5 592.5,167.5 593.5,170.5C 593.5,173.833 593.5,177.167 593.5,180.5C 592.233,184.257 589.566,186.424 585.5,187C 574.125,186.437 569.959,180.604 573,169.5C 573.876,167.365 575.376,166.031 577.5,165.5C 580.764,164.676 584.098,164.342 587.5,164.5 Z"/></g>
<g><path style="opacity:0.596" fill="#86848c" d="M 661.5,163.5 C 663.262,164.262 664.262,165.596 664.5,167.5C 662.738,166.738 661.738,165.404 661.5,163.5 Z"/></g>
<g><path style="opacity:0.631" fill="#868391" d="M 668.5,171.5 C 670.262,172.262 671.262,173.596 671.5,175.5C 669.738,174.738 668.738,173.404 668.5,171.5 Z"/></g>
<g><path style="opacity:0.69" fill="#9999a2" d="M 593.5,170.5 C 594.306,171.997 594.972,173.664 595.5,175.5C 594.972,177.336 594.306,179.003 593.5,180.5C 593.5,177.167 593.5,173.833 593.5,170.5 Z"/></g>
<g><path style="opacity:0.839" fill="#a3a0ab" d="M 674.5,179.5 C 676.914,180.911 678.581,182.911 679.5,185.5C 677.086,184.089 675.419,182.089 674.5,179.5 Z"/></g>
<g><path style="opacity:0.396" fill="#87868e" d="M 648.5,182.5 C 650.144,182.81 651.144,183.81 651.5,185.5C 649.856,185.19 648.856,184.19 648.5,182.5 Z"/></g>
<g><path style="opacity:0.999" fill="#ecedef" d="M 219.5,186.5 C 219.427,188.027 220.094,189.027 221.5,189.5C 222.972,191.117 223.639,193.117 223.5,195.5C 223.639,197.883 222.972,199.883 221.5,201.5C 220.5,201.833 219.833,202.5 219.5,203.5C 218.942,204.79 217.942,205.623 216.5,206C 203.824,207.326 198.99,201.826 202,189.5C 207.005,183.287 212.838,182.287 219.5,186.5 Z"/></g>
<g><path style="opacity:0.451" fill="#6f6f7d" d="M 219.5,186.5 C 220.906,186.973 221.573,187.973 221.5,189.5C 220.094,189.027 219.427,188.027 219.5,186.5 Z"/></g>
<g><path style="opacity:0.557" fill="#8d8a97" d="M 679.5,185.5 C 681.262,186.262 682.262,187.596 682.5,189.5C 680.738,188.738 679.738,187.404 679.5,185.5 Z"/></g>
<g><path style="opacity:1" fill="#b7bec1" d="M 347.5,187.5 C 343.081,188.972 338.414,189.638 333.5,189.5C 337.919,188.028 342.586,187.362 347.5,187.5 Z"/></g>
<g><path style="opacity:1" fill="#bbb9c4" d="M 331.5,189.5 C 327.99,191.184 324.157,192.184 320,192.5C 319.167,192.167 318.333,191.833 317.5,191.5C 317.624,190.893 317.957,190.56 318.5,190.5C 318.735,191.097 319.235,191.43 320,191.5C 323.792,190.562 327.625,189.896 331.5,189.5 Z"/></g>
<g><path style="opacity:0.569" fill="#7a7881" d="M 518.5,196.5 C 519.71,196.932 520.71,197.599 521.5,198.5C 519.821,198.715 518.821,198.048 518.5,196.5 Z"/></g>
<g><path style="opacity:0.055" fill="#64656a" d="M 221.5,201.5 C 221.5,202.833 220.833,203.5 219.5,203.5C 219.833,202.5 220.5,201.833 221.5,201.5 Z"/></g>
<g><path style="opacity:0.667" fill="#a6aab0" d="M 272.5,202.5 C 269.495,204.277 266.162,205.277 262.5,205.5C 265.505,203.723 268.838,202.723 272.5,202.5 Z"/></g>
<g><path style="opacity:0.8" fill="#a6a9ac" d="M 261.5,205.5 C 259.383,207.655 256.716,208.655 253.5,208.5C 255.936,207.129 258.603,206.129 261.5,205.5 Z"/></g>
<g><path style="opacity:0.729" fill="#9b9c9f" d="M 455.5,209.5 C 459.79,209.198 463.79,209.864 467.5,211.5C 463.295,211.283 459.295,210.617 455.5,209.5 Z"/></g>
<g><path style="opacity:0.765" fill="#9f9fa2" d="M 346.5,210.5 C 342.382,211.709 338.049,212.376 333.5,212.5C 337.545,210.823 341.878,210.156 346.5,210.5 Z"/></g>
<g><path style="opacity:1" fill="#aeacb2" d="M 470.5,211.5 C 473.518,211.335 476.518,211.502 479.5,212C 480.416,212.278 481.082,212.778 481.5,213.5C 477.64,213.192 473.974,212.525 470.5,211.5 Z"/></g>
<g><path style="opacity:0.443" fill="#8a8890" d="M 697.5,211.5 C 698.906,211.973 699.573,212.973 699.5,214.5C 698.094,214.027 697.427,213.027 697.5,211.5 Z"/></g>
<g><path style="opacity:0.424" fill="#757679" d="M 568.5,214.5 C 570.153,214.66 571.486,215.326 572.5,216.5C 570.62,216.771 569.287,216.104 568.5,214.5 Z"/></g>
<g><path style="opacity:0.659" fill="#a19fa6" d="M 513.5,219.5 C 516.152,219.41 518.485,220.076 520.5,221.5C 517.848,221.59 515.515,220.924 513.5,219.5 Z"/></g>
<g><path style="opacity:0.8" fill="#a8a9b0" d="M 587.5,227.5 C 589.587,228.585 590.92,230.251 591.5,232.5C 589.413,231.415 588.08,229.749 587.5,227.5 Z"/></g>
<g><path style="opacity:0.988" fill="#e2e3e6" d="M 639.5,230.5 C 645.394,229.108 649.06,231.274 650.5,237C 648.227,243.308 644.227,244.808 638.5,241.5C 635.742,237.538 636.075,233.871 639.5,230.5 Z"/></g>
<g><path style="opacity:0.361" fill="#7e7e88" d="M 593.5,236.5 C 594.952,238.848 595.618,241.514 595.5,244.5C 595.493,246.369 595.16,248.036 594.5,249.5C 594.533,245.131 594.2,240.798 593.5,236.5 Z"/></g>
<g><path style="opacity:1" fill="#f7f8f8" d="M 337.5,263.5 C 337.41,266.152 338.076,268.485 339.5,270.5C 339.5,273.5 339.5,276.5 339.5,279.5C 339.333,292.837 339.5,306.171 340,319.5C 340.278,320.416 340.778,321.082 341.5,321.5C 342.814,324.128 344.147,326.795 345.5,329.5C 345.417,334.759 347.751,336.759 352.5,335.5C 361.311,317.361 375.645,306.361 395.5,302.5C 401.509,302.334 407.509,302.501 413.5,303C 416.876,304.899 420.543,305.732 424.5,305.5C 429.086,306.46 433.086,308.46 436.5,311.5C 437.035,313.446 438.368,314.446 440.5,314.5C 442.5,315.833 444.167,317.5 445.5,319.5C 446.08,321.749 447.413,323.415 449.5,324.5C 452.605,327.275 454.938,330.608 456.5,334.5C 457.053,336.552 458.053,336.885 459.5,335.5C 470.445,320.003 476.445,302.67 477.5,283.5C 478.167,282.167 478.833,280.833 479.5,279.5C 482.85,288.22 485.183,297.22 486.5,306.5C 486.625,313.098 487.625,319.431 489.5,325.5C 492.659,354.558 491.992,383.558 487.5,412.5C 486.883,412.611 486.383,412.944 486,413.5C 485.505,415.473 485.338,417.473 485.5,419.5C 478.518,458.324 458.852,488.824 426.5,511C 428.92,511.29 431.254,511.79 433.5,512.5C 434.23,514.045 435.563,514.878 437.5,515C 437.146,516.626 437.146,518.459 437.5,520.5C 422.92,537.66 413.087,557.327 408,579.5C 406.612,580.554 405.112,580.72 403.5,580C 399.818,571.297 396.318,562.463 393,553.5C 384.08,537.994 375.413,522.328 367,506.5C 364.654,500.963 362.821,495.297 361.5,489.5C 361.44,488.957 361.107,488.624 360.5,488.5C 359.614,489.325 359.281,490.325 359.5,491.5C 352.302,506.537 341.968,519.037 328.5,529C 325.852,531.05 322.852,532.216 319.5,532.5C 316.482,532.296 313.482,531.963 310.5,531.5C 310.027,530.094 309.027,529.427 307.5,529.5C 305.113,525.613 304.946,521.613 307,517.5C 312.833,513 318.667,508.5 324.5,504C 329.541,498.707 334.207,493.207 338.5,487.5C 339.906,487.027 340.573,486.027 340.5,484.5C 345.789,475.475 349.623,465.809 352,455.5C 353.393,436.2 353.893,416.867 353.5,397.5C 353.389,396.883 353.056,396.383 352.5,396C 348.848,395.501 345.182,395.335 341.5,395.5C 337.714,395.68 334.381,394.68 331.5,392.5C 331.027,391.094 330.027,390.427 328.5,390.5C 325.185,387.875 322.851,384.542 321.5,380.5C 322.279,377.925 322.113,375.592 321,373.5C 320.832,339.997 320.332,306.664 319.5,273.5C 318.623,271.272 317.29,269.272 315.5,267.5C 314.508,265.974 313.008,265.307 311,265.5C 309.615,265.514 308.449,265.848 307.5,266.5C 304.8,268.046 302.967,270.379 302,273.5C 301.667,307.833 301.333,342.167 301,376.5C 292.604,378.906 285.937,376.573 281,369.5C 280.333,336.833 280.333,304.167 281,271.5C 285.72,250.883 298.553,242.383 319.5,246C 328.012,249.347 334.012,255.18 337.5,263.5 Z M 419.5,331.5 C 422.159,333.164 424.825,334.83 427.5,336.5C 433.8,342.456 438.466,349.456 441.5,357.5C 441.858,360.689 442.525,363.689 443.5,366.5C 443.5,366.833 443.5,367.167 443.5,367.5C 443.768,369.099 443.434,370.432 442.5,371.5C 442.167,370.5 441.5,369.833 440.5,369.5C 437.899,365.229 434.566,361.563 430.5,358.5C 430.027,357.094 429.027,356.427 427.5,356.5C 426.564,355.026 425.23,354.026 423.5,353.5C 405.166,343.701 389.333,347.034 376,363.5C 371.723,368.936 368.556,374.936 366.5,381.5C 365.833,380.833 365.167,380.167 364.5,379.5C 364.11,361.759 370.777,346.926 384.5,335C 395.57,327.918 407.237,326.751 419.5,331.5 Z M 433.5,404.5 C 433.992,409.324 434.659,413.99 435.5,418.5C 436.658,440.739 432.992,462.073 424.5,482.5C 423.596,481.791 423.263,480.791 423.5,479.5C 426.093,457.606 424.093,436.273 417.5,415.5C 416.479,408.446 414.479,401.779 411.5,395.5C 410.644,391.43 409.477,387.43 408,383.5C 406.528,377.924 407.695,373.091 411.5,369C 419.928,368.06 425.094,371.893 427,380.5C 429.795,388.349 431.962,396.349 433.5,404.5 Z"/></g>
<g><path style="opacity:0.541" fill="#7e7c82" d="M 92.5,249.5 C 94.0269,249.427 95.0269,250.094 95.5,251.5C 93.9731,251.573 92.9731,250.906 92.5,249.5 Z"/></g>
<g><path style="opacity:0.639" fill="#88868c" d="M 694.5,249.5 C 696.404,249.738 697.738,250.738 698.5,252.5C 696.596,252.262 695.262,251.262 694.5,249.5 Z"/></g>
<g><path style="opacity:1" fill="#f4f4f5" d="M 518.5,255.5 C 518.427,257.027 519.094,258.027 520.5,258.5C 521.31,262.938 522.977,266.938 525.5,270.5C 526.662,321.429 526.828,372.429 526,423.5C 525.488,428.904 524.655,434.238 523.5,439.5C 521.837,441.438 521.171,443.772 521.5,446.5C 517.896,463.705 510.563,479.038 499.5,492.5C 498.5,492.833 497.833,493.5 497.5,494.5C 492.092,502.587 484.759,507.92 475.5,510.5C 467.302,508.782 464.135,503.782 466,495.5C 471.699,488.97 477.533,482.637 483.5,476.5C 484.906,476.027 485.573,475.027 485.5,473.5C 496.94,453.078 502.773,431.078 503,407.5C 502.231,363.474 502.398,319.641 503.5,276C 500.432,272.389 497.266,268.889 494,265.5C 491.126,255.512 494.959,249.845 505.5,248.5C 510.897,249.029 515.23,251.362 518.5,255.5 Z"/></g>
<g><path style="opacity:1" fill="#bbbcc1" d="M 708.5,251.5 C 708.389,252.117 708.056,252.617 707.5,253C 704.304,253.805 701.304,253.638 698.5,252.5C 701.807,251.949 705.14,251.616 708.5,251.5 Z"/></g>
<g><path style="opacity:1" fill="#eaebed" d="M 153.5,253.5 C 154.299,256.43 154.632,259.43 154.5,262.5C 154.426,264.411 153.426,265.578 151.5,266C 148.961,266.796 146.628,266.629 144.5,265.5C 144.027,264.094 143.027,263.427 141.5,263.5C 138.442,256.191 140.775,251.858 148.5,250.5C 150.598,250.957 152.264,251.957 153.5,253.5 Z"/></g>
<g><path style="opacity:0.757" fill="#8e8f96" d="M 246.5,252.5 C 248.987,253.323 251.321,254.323 253.5,255.5C 250.423,255.821 248.09,254.821 246.5,252.5 Z"/></g>
<g><path style="opacity:0.576" fill="#85868b" d="M 518.5,255.5 C 519.906,255.973 520.573,256.973 520.5,258.5C 519.094,258.027 518.427,257.027 518.5,255.5 Z"/></g>
<g><path style="opacity:0.686" fill="#9d9ea5" d="M 153.5,253.5 C 154.117,253.611 154.617,253.944 155,254.5C 155.801,257.367 155.634,260.034 154.5,262.5C 154.632,259.43 154.299,256.43 153.5,253.5 Z"/></g>
<g><path style="opacity:0.576" fill="#86878c" d="M 141.5,263.5 C 143.027,263.427 144.027,264.094 144.5,265.5C 142.973,265.573 141.973,264.906 141.5,263.5 Z"/></g>
<g><path style="opacity:0.596" fill="#8a8991" d="M 220.5,263.5 C 222.027,263.427 223.027,264.094 223.5,265.5C 221.973,265.573 220.973,264.906 220.5,263.5 Z"/></g>
<g><path style="opacity:0.361" fill="#7a7a7d" d="M 307.5,266.5 C 308.449,265.848 309.615,265.514 311,265.5C 313.008,265.307 314.508,265.974 315.5,267.5C 312.904,266.735 310.237,266.401 307.5,266.5 Z"/></g>
<g><path style="opacity:0.659" fill="#9b9ba6" d="M 520.5,258.5 C 523.707,261.768 525.373,265.768 525.5,270.5C 522.977,266.938 521.31,262.938 520.5,258.5 Z"/></g>
<g><path style="opacity:1" fill="#a7a8b2" d="M 262.5,260.5 C 267.893,266.058 267.56,271.391 261.5,276.5C 259.516,273.139 260.516,271.472 264.5,271.5C 264.887,267.556 264.22,263.889 262.5,260.5 Z"/></g>
<g><path style="opacity:1" fill="#b9b9c0" d="M 543.5,263.5 C 544.336,267.948 545.336,271.948 546.5,275.5C 542.737,272.112 541.737,268.112 543.5,263.5 Z"/></g>
<g><path style="opacity:0.486" fill="#8d8d97" d="M 337.5,263.5 C 338.924,265.515 339.59,267.848 339.5,270.5C 338.076,268.485 337.41,266.152 337.5,263.5 Z"/></g>
<g><path style="opacity:0.999" fill="#f1f2f3" d="M 625.5,300.5 C 625.427,302.027 626.094,303.027 627.5,303.5C 630.857,305.866 634.19,308.199 637.5,310.5C 637.089,313.276 637.922,313.943 640,312.5C 643.402,313.726 646.902,314.393 650.5,314.5C 652.099,314.232 653.432,314.566 654.5,315.5C 654.369,316.239 654.536,316.906 655,317.5C 656.388,316.446 657.888,316.28 659.5,317C 656.591,317.85 653.924,319.017 651.5,320.5C 637.551,322.384 627.717,329.718 622,342.5C 620.052,349.077 618.552,355.744 617.5,362.5C 616.5,361.167 615.5,359.833 614.5,358.5C 613.781,356.236 613.448,353.903 613.5,351.5C 613.318,349.409 613.652,347.409 614.5,345.5C 614.154,344.304 613.654,344.304 613,345.5C 613.979,343.721 613.646,342.055 612,340.5C 611.329,339.748 610.496,339.414 609.5,339.5C 607.898,335.905 605.898,332.571 603.5,329.5C 602.738,327.738 601.404,326.738 599.5,326.5C 591.966,322.658 583.966,320.324 575.5,319.5C 574.602,318.842 573.602,318.176 572.5,317.5C 573.602,316.824 574.602,316.158 575.5,315.5C 586.779,314.355 596.612,310.022 605,302.5C 611.117,291.982 614.951,280.648 616.5,268.5C 618.26,279.545 621.26,290.212 625.5,300.5 Z"/></g>
<g><path style="opacity:0.749" fill="#9fa2ab" d="M 80.5,275.5 C 84.8238,273.837 88.4905,274.837 91.5,278.5C 90.0502,279.658 89.0502,279.158 88.5,277C 85.8832,276.178 83.2165,275.678 80.5,275.5 Z"/></g>
<g><path style="opacity:0.999" fill="#f4f5f6" d="M 80.5,275.5 C 83.2165,275.678 85.8832,276.178 88.5,277C 89.0502,279.158 90.0502,279.658 91.5,278.5C 92.9063,278.973 93.573,279.973 93.5,281.5C 93.6633,283.857 93.4966,286.19 93,288.5C 92.4444,286.405 91.9444,286.238 91.5,288C 92.2335,289.766 92.5668,291.599 92.5,293.5C 92.7678,295.099 92.4345,296.432 91.5,297.5C 90.3937,298.149 89.3937,298.483 88.5,298.5C 88.9312,299.293 89.2645,300.127 89.5,301C 86.6986,306.84 85.3652,313.006 85.5,319.5C 84.9619,323.524 84.2952,327.524 83.5,331.5C 82.8826,331.611 82.3826,331.944 82,332.5C 81.5045,334.473 81.3379,336.473 81.5,338.5C 80.2888,347.454 79.4554,356.454 79,365.5C 77.4082,375.21 71.9082,378.71 62.5,376C 58.1182,373.041 56.1182,368.875 56.5,363.5C 58.695,335.055 64.5283,307.388 74,280.5C 75.4685,277.858 77.6352,276.191 80.5,275.5 Z"/></g>
<g><path style="opacity:1" fill="#f2f3f4" d="M 729.5,281.5 C 730.589,286.767 732.256,291.767 734.5,296.5C 734.41,299.152 735.076,301.485 736.5,303.5C 737.434,304.568 737.768,305.901 737.5,307.5C 736.572,313.879 737.905,319.546 741.5,324.5C 741.5,324.833 741.5,325.167 741.5,325.5C 741.335,328.85 741.502,332.183 742,335.5C 742.374,337.491 743.207,339.158 744.5,340.5C 745.607,348.296 746.607,356.129 747.5,364C 746.15,375.726 740.15,379.393 729.5,375C 727.951,373.786 726.785,372.286 726,370.5C 723.18,341.232 717.346,312.566 708.5,284.5C 711.204,275.815 716.871,272.981 725.5,276C 727.464,277.451 728.797,279.284 729.5,281.5 Z"/></g>
<g><path style="opacity:0.173" fill="#606068" d="M 479.5,279.5 C 478.833,280.833 478.167,282.167 477.5,283.5C 477.337,281.143 477.503,278.81 478,276.5C 479.039,277.244 479.539,278.244 479.5,279.5 Z"/></g>
<g><path style="opacity:1" fill="#a0a4ae" d="M 729.5,281.5 C 732.14,286.085 733.806,291.085 734.5,296.5C 732.256,291.767 730.589,286.767 729.5,281.5 Z"/></g>
<g><path style="opacity:1" fill="#bdbfc7" d="M 93.5,281.5 C 94.8227,285.598 94.4894,289.598 92.5,293.5C 92.5668,291.599 92.2335,289.766 91.5,288C 91.9444,286.238 92.4444,286.405 93,288.5C 93.4966,286.19 93.6633,283.857 93.5,281.5 Z"/></g>
<g><path style="opacity:1" fill="#f5f6f7" d="M 176.5,288.5 C 176.833,288.5 177.167,288.5 177.5,288.5C 178.156,290.484 178.822,292.484 179.5,294.5C 178.777,296.782 178.443,299.116 178.5,301.5C 175.627,303.627 172.627,303.96 169.5,302.5C 169.348,300.758 169.348,298.924 169.5,297C 165.678,295.307 166.011,293.973 170.5,293C 169.833,292.667 169.167,292.333 168.5,292C 170.391,289.198 173.058,288.032 176.5,288.5 Z"/></g>
<g><path style="opacity:0.993" fill="#dadbde" d="M 176.5,288.5 C 173.058,288.032 170.391,289.198 168.5,292C 169.167,292.333 169.833,292.667 170.5,293C 166.011,293.973 165.678,295.307 169.5,297C 169.348,298.924 169.348,300.758 169.5,302.5C 167.248,302.084 165.748,300.751 165,298.5C 163.622,294.058 164.788,290.558 168.5,288C 171.367,287.199 174.034,287.366 176.5,288.5 Z"/></g>
<g><path style="opacity:0.855" fill="#a8a9b0" d="M 177.5,288.5 C 182.376,292.469 182.709,296.802 178.5,301.5C 178.443,299.116 178.777,296.782 179.5,294.5C 178.822,292.484 178.156,290.484 177.5,288.5 Z"/></g>
<g><path style="opacity:0.998" fill="#e9eaed" d="M 212.5,298.5 C 212.75,299.922 213.583,300.922 215,301.5C 215.498,304.482 215.665,307.482 215.5,310.5C 212.776,314.356 209.109,315.356 204.5,313.5C 198.245,306.053 199.745,300.719 209,297.5C 210.256,297.648 211.423,297.982 212.5,298.5 Z"/></g>
<g><path style="opacity:0.659" fill="#8e929b" d="M 734.5,296.5 C 735.924,298.515 736.59,300.848 736.5,303.5C 735.076,301.485 734.41,299.152 734.5,296.5 Z"/></g>
<g><path style="opacity:0.702" fill="#9eaaac" d="M 395.5,302.5 C 401.653,301.347 407.986,301.18 414.5,302C 418.163,302.572 421.497,303.738 424.5,305.5C 420.543,305.732 416.876,304.899 413.5,303C 407.509,302.501 401.509,302.334 395.5,302.5 Z"/></g>
<g><path style="opacity:1" fill="#bdc0c6" d="M 91.5,297.5 C 89.7891,305.019 87.7891,312.353 85.5,319.5C 85.3652,313.006 86.6986,306.84 89.5,301C 89.2645,300.127 88.9312,299.293 88.5,298.5C 89.3937,298.483 90.3937,298.149 91.5,297.5 Z"/></g>
<g><path style="opacity:0.451" fill="#888694" d="M 625.5,300.5 C 626.906,300.973 627.573,301.973 627.5,303.5C 626.094,303.027 625.427,302.027 625.5,300.5 Z"/></g>
<g><path style="opacity:1" fill="#a5a4af" d="M 212.5,298.5 C 216.942,300.39 218.442,303.723 217,308.5C 216.722,309.416 216.222,310.082 215.5,310.5C 215.665,307.482 215.498,304.482 215,301.5C 213.583,300.922 212.75,299.922 212.5,298.5 Z"/></g>
<g><path style="opacity:1" fill="#9ca3a6" d="M 637.5,310.5 C 641.98,311.698 646.313,313.031 650.5,314.5C 646.902,314.393 643.402,313.726 640,312.5C 637.922,313.943 637.089,313.276 637.5,310.5 Z"/></g>
<g><path style="opacity:0.549" fill="#8b8c93" d="M 436.5,311.5 C 438.23,312.026 439.564,313.026 440.5,314.5C 438.368,314.446 437.035,313.446 436.5,311.5 Z"/></g>
<g><path style="opacity:1" fill="#b1b2bb" d="M 486.5,306.5 C 488.453,312.556 489.453,318.889 489.5,325.5C 487.625,319.431 486.625,313.098 486.5,306.5 Z"/></g>
<g><path style="opacity:1" fill="#babac3" d="M 737.5,307.5 C 739.324,312.936 740.658,318.603 741.5,324.5C 737.905,319.546 736.572,313.879 737.5,307.5 Z"/></g>
<g><path style="opacity:0.208" fill="#747481" d="M 139.5,318.5 C 138.833,317.5 138.167,316.5 137.5,315.5C 137.393,313.621 137.893,313.288 139,314.5C 139.49,315.793 139.657,317.127 139.5,318.5 Z"/></g>
<g><path style="opacity:0.639" fill="#9f9fac" d="M 190.5,318.5 C 187.43,318.368 184.43,318.701 181.5,319.5C 181.611,318.883 181.944,318.383 182.5,318C 185.367,317.199 188.034,317.366 190.5,318.5 Z"/></g>
<g><path style="opacity:0.812" fill="#aeafb5" d="M 575.5,315.5 C 574.602,316.158 573.602,316.824 572.5,317.5C 573.602,318.176 574.602,318.842 575.5,319.5C 562.167,318.167 562.167,316.833 575.5,315.5 Z"/></g>
<g><path style="opacity:0.749" fill="#aeafb5" d="M 654.5,315.5 C 658.607,315.518 662.607,316.185 666.5,317.5C 661.593,318.963 656.593,319.963 651.5,320.5C 653.924,319.017 656.591,317.85 659.5,317C 657.888,316.28 656.388,316.446 655,317.5C 654.536,316.906 654.369,316.239 654.5,315.5 Z"/></g>
<g><path style="opacity:1" fill="#e6e7ea" d="M 190.5,318.5 C 192.752,318.916 194.252,320.249 195,322.5C 196.337,329.344 193.504,333.344 186.5,334.5C 179.559,332.726 177.059,328.393 179,321.5C 179.708,320.619 180.542,319.953 181.5,319.5C 184.43,318.701 187.43,318.368 190.5,318.5 Z"/></g>
<g><path style="opacity:1" fill="#7f7f86" d="M 339.5,279.5 C 340.256,293.347 340.922,307.347 341.5,321.5C 340.778,321.082 340.278,320.416 340,319.5C 339.5,306.171 339.333,292.837 339.5,279.5 Z"/></g>
<g><path style="opacity:1" fill="#f3f4f5" d="M 254.5,319.5 C 254.5,321.5 255.5,322.5 257.5,322.5C 260.108,326.941 260.108,331.274 257.5,335.5C 255.672,345.461 254.672,355.794 254.5,366.5C 248.79,373.14 242.957,373.14 237,366.5C 235.869,359.601 235.369,352.601 235.5,345.5C 235.667,339.167 235.833,332.833 236,326.5C 239.949,318.103 246.116,315.77 254.5,319.5 Z"/></g>
<g><path style="opacity:0.82" fill="#a7a9ab" d="M 137.5,316.5 C 137.706,319.495 137.04,322.162 135.5,324.5C 135.565,321.572 136.232,318.905 137.5,316.5 Z"/></g>
<g><path style="opacity:0.612" fill="#818286" d="M 254.5,319.5 C 255.833,320.167 256.833,321.167 257.5,322.5C 255.5,322.5 254.5,321.5 254.5,319.5 Z"/></g>
<g><path style="opacity:0.765" fill="#9c9b9f" d="M 445.5,319.5 C 447.587,320.585 448.92,322.251 449.5,324.5C 447.413,323.415 446.08,321.749 445.5,319.5 Z"/></g>
<g><path style="opacity:0.999" fill="#ecedee" d="M 137.5,315.5 C 138.167,316.5 138.833,317.5 139.5,318.5C 140.75,326.25 143.75,333.25 148.5,339.5C 156.299,344.99 164.966,348.324 174.5,349.5C 174.833,350.167 175.167,350.833 175.5,351.5C 165.6,352.787 156.6,356.287 148.5,362C 145.433,365.297 143.267,369.131 142,373.5C 140.819,378.56 139.485,383.56 138,388.5C 136.337,382.516 134.67,376.516 133,370.5C 129.162,361.333 122.329,355.833 112.5,354C 107.479,352.896 102.479,351.729 97.5,350.5C 106.746,348.439 115.746,345.605 124.5,342C 130.362,337.422 134.028,331.589 135.5,324.5C 137.04,322.162 137.706,319.495 137.5,316.5C 137.5,316.167 137.5,315.833 137.5,315.5 Z"/></g>
<g><path style="opacity:0.541" fill="#8d8d9a" d="M 599.5,326.5 C 601.404,326.738 602.738,327.738 603.5,329.5C 601.596,329.262 600.262,328.262 599.5,326.5 Z"/></g>
<g><path style="opacity:1" fill="#a7a5b0" d="M 419.5,331.5 C 423.459,331.147 426.126,332.813 427.5,336.5C 424.825,334.83 422.159,333.164 419.5,331.5 Z"/></g>
<g><path style="opacity:1" fill="#b2b3bc" d="M 741.5,325.5 C 743.022,330.273 744.022,335.273 744.5,340.5C 743.207,339.158 742.374,337.491 742,335.5C 741.502,332.183 741.335,328.85 741.5,325.5 Z"/></g>
<g><path style="opacity:0.686" fill="#9b9ca1" d="M 83.5,331.5 C 83.0733,334.01 82.4067,336.343 81.5,338.5C 81.3379,336.473 81.5045,334.473 82,332.5C 82.3826,331.944 82.8826,331.611 83.5,331.5 Z"/></g>
<g><path style="opacity:1" fill="#bdbcc3" d="M 345.5,329.5 C 347.214,332.213 349.547,334.213 352.5,335.5C 347.751,336.759 345.417,334.759 345.5,329.5 Z"/></g>
<g><path style="opacity:0.624" fill="#c4c2c9" d="M 319.5,273.5 C 320.332,306.664 320.832,339.997 321,373.5C 322.113,375.592 322.279,377.925 321.5,380.5C 320.732,379.737 320.232,378.737 320,377.5C 319.5,342.835 319.333,308.168 319.5,273.5 Z"/></g>
<g><path style="opacity:0.416" fill="#8b8b8c" d="M 456.5,334.5 C 457.391,335.11 458.391,335.443 459.5,335.5C 458.053,336.885 457.053,336.552 456.5,334.5 Z"/></g>
<g><path style="opacity:1" fill="#bfbdc2" d="M 609.5,339.5 C 610.496,339.414 611.329,339.748 612,340.5C 613.646,342.055 613.979,343.721 613,345.5C 613.654,344.304 614.154,344.304 614.5,345.5C 613.652,347.409 613.318,349.409 613.5,351.5C 612.396,347.522 611.063,343.522 609.5,339.5 Z"/></g>
<g><path style="opacity:0.278" fill="#787885" d="M 174.5,349.5 C 175.675,349.281 176.675,349.614 177.5,350.5C 177.043,351.298 176.376,351.631 175.5,351.5C 175.167,350.833 174.833,350.167 174.5,349.5 Z"/></g>
<g><path style="opacity:0.804" fill="#8f8f9a" d="M 423.5,353.5 C 425.23,354.026 426.564,355.026 427.5,356.5C 425.368,356.446 424.035,355.446 423.5,353.5 Z"/></g>
<g><path style="opacity:0.02" fill="#484854" d="M 427.5,356.5 C 429.027,356.427 430.027,357.094 430.5,358.5C 428.973,358.573 427.973,357.906 427.5,356.5 Z"/></g>
<g><path style="opacity:0.675" fill="#9e9fa4" d="M 257.5,335.5 C 257.512,343.053 257.345,350.719 257,358.5C 256.902,361.522 256.068,364.189 254.5,366.5C 254.672,355.794 255.672,345.461 257.5,335.5 Z"/></g>
<g><path style="opacity:0.608" fill="#6f6f79" d="M 430.5,358.5 C 434.566,361.563 437.899,365.229 440.5,369.5C 436.434,366.437 433.101,362.771 430.5,358.5 Z"/></g>
<g><path style="opacity:0.886" fill="#9b9ba3" d="M 441.5,357.5 C 442.117,357.611 442.617,357.944 443,358.5C 443.497,361.146 443.664,363.813 443.5,366.5C 442.525,363.689 441.858,360.689 441.5,357.5 Z"/></g>
<g><path style="opacity:0.792" fill="#9d9daa" d="M 614.5,358.5 C 615.5,359.833 616.5,361.167 617.5,362.5C 617.688,364.103 617.188,365.437 616,366.5C 615.433,363.832 614.933,361.166 614.5,358.5 Z"/></g>
<g><path style="opacity:0.382" fill="#919191" d="M 443.5,367.5 C 444.788,369.035 444.788,370.701 443.5,372.5C 442.893,372.376 442.56,372.043 442.5,371.5C 443.434,370.432 443.768,369.099 443.5,367.5 Z"/></g>
<g><path style="opacity:0.737" fill="#a6a6ae" d="M 267.5,375.5 C 264.495,377.277 261.162,378.277 257.5,378.5C 260.505,376.723 263.838,375.723 267.5,375.5 Z"/></g>
<g><path style="opacity:1" fill="#f7f7f8" d="M 276.5,375.5 C 277.801,376.64 278.968,377.973 280,379.5C 281.707,378.862 283.54,378.862 285.5,379.5C 285.833,379.5 286.167,379.5 286.5,379.5C 286.738,381.404 287.738,382.738 289.5,383.5C 293.513,387.515 297.179,391.848 300.5,396.5C 301.08,398.749 302.413,400.415 304.5,401.5C 304.738,403.404 305.738,404.738 307.5,405.5C 309.633,407.091 311.299,409.091 312.5,411.5C 312.427,413.027 313.094,414.027 314.5,414.5C 314.738,416.404 315.738,417.738 317.5,418.5C 319.267,420.792 320.267,423.458 320.5,426.5C 320.563,431.203 320.229,435.87 319.5,440.5C 315.194,452.952 306.361,459.618 293,460.5C 287.865,460.109 283.031,458.776 278.5,456.5C 278.44,455.957 278.107,455.624 277.5,455.5C 276.571,456.689 276.238,458.022 276.5,459.5C 273.574,468.922 267.241,474.756 257.5,477C 244.85,478.895 234.684,474.728 227,464.5C 221.903,457.951 217.07,451.285 212.5,444.5C 211.432,443.566 210.099,443.232 208.5,443.5C 208.002,448.152 207.669,452.819 207.5,457.5C 207.5,458.167 207.5,458.833 207.5,459.5C 206.065,460.79 205.065,462.456 204.5,464.5C 203.513,467.768 203.18,471.102 203.5,474.5C 203.5,474.833 203.5,475.167 203.5,475.5C 202.073,477.148 201.24,479.148 201,481.5C 200.444,479.405 199.944,479.238 199.5,481C 200.233,482.766 200.567,484.599 200.5,486.5C 199.441,493.67 197.774,500.67 195.5,507.5C 193.837,509.438 193.171,511.772 193.5,514.5C 193.5,515.167 193.5,515.833 193.5,516.5C 191.787,517.635 191.12,519.302 191.5,521.5C 191.56,522.043 191.893,522.376 192.5,522.5C 206.901,513.967 221.567,505.967 236.5,498.5C 242.731,496.994 249.064,496.327 255.5,496.5C 257.086,497.413 258.586,497.413 260,496.5C 261.626,499.128 263.626,501.461 266,503.5C 267.128,505.345 267.628,507.345 267.5,509.5C 267.667,572.168 267.5,634.834 267,697.5C 265.164,699.131 265.664,699.798 268.5,699.5C 268.833,699.5 269.167,699.5 269.5,699.5C 270.687,700.534 271.52,701.867 272,703.5C 275.149,701.638 278.649,700.971 282.5,701.5C 282.833,701.5 283.167,701.5 283.5,701.5C 283.611,702.117 283.944,702.617 284.5,703C 288.832,703.583 293.165,704.083 297.5,704.5C 298.167,704.5 298.833,704.5 299.5,704.5C 301.438,706.163 303.772,706.829 306.5,706.5C 306.833,706.5 307.167,706.5 307.5,706.5C 310.452,708.41 313.786,709.41 317.5,709.5C 319.214,710.738 321.214,711.405 323.5,711.5C 332.431,713.699 341.098,716.699 349.5,720.5C 350.287,722.104 351.62,722.771 353.5,722.5C 357.29,723.895 360.957,725.562 364.5,727.5C 365.035,729.446 366.368,730.446 368.5,730.5C 369.738,731.412 371.072,731.579 372.5,731C 376.4,727.19 380.066,723.19 383.5,719C 385.803,716.866 388.469,715.366 391.5,714.5C 392.086,714.709 392.586,715.043 393,715.5C 393.315,714.092 392.982,712.759 392,711.5C 390.293,709.963 388.793,708.296 387.5,706.5C 387.573,704.973 386.906,703.973 385.5,703.5C 368.489,688.324 348.822,677.824 326.5,672C 314.208,669.008 301.875,666.342 289.5,664C 285.006,660.24 283.673,655.74 285.5,650.5C 287.063,649.055 288.396,647.389 289.5,645.5C 291.375,643.761 293.708,642.761 296.5,642.5C 300.185,643.169 303.852,643.835 307.5,644.5C 308.469,645.309 309.302,646.309 310,647.5C 315.087,646.658 319.92,647.658 324.5,650.5C 326.747,649.626 329.08,649.292 331.5,649.5C 332.167,649.5 332.833,649.5 333.5,649.5C 335.617,651.655 338.284,652.655 341.5,652.5C 366.571,659.279 387.738,672.279 405,691.5C 423.741,670.538 446.908,656.872 474.5,650.5C 477.152,650.59 479.485,649.924 481.5,648.5C 482.919,647.549 484.585,647.216 486.5,647.5C 494.464,647.171 502.131,645.838 509.5,643.5C 514.722,641.839 519.722,642.339 524.5,645C 526.141,646.129 527.141,647.629 527.5,649.5C 527.466,653.63 526.799,657.63 525.5,661.5C 524.251,663.136 522.584,664.303 520.5,665C 502.433,667.101 484.766,670.934 467.5,676.5C 465.5,676.5 463.5,676.5 461.5,676.5C 461.5,677.5 461.5,678.5 461.5,679.5C 443.362,686.73 428.362,698.063 416.5,713.5C 415.957,713.56 415.624,713.893 415.5,714.5C 417.045,715.452 418.712,715.785 420.5,715.5C 423.533,717.016 426.2,719.016 428.5,721.5C 428.5,723.167 428.5,724.833 428.5,726.5C 430.292,726.366 431.958,726.699 433.5,727.5C 435.463,728.96 437.296,730.627 439,732.5C 457.285,720.569 477.118,712.236 498.5,707.5C 501.152,707.59 503.485,706.924 505.5,705.5C 511.245,703.549 517.245,702.215 523.5,701.5C 531.066,701.228 538.399,700.228 545.5,698.5C 548.625,697.521 551.958,697.187 555.5,697.5C 603.838,697.833 652.171,697.5 700.5,696.5C 700.376,695.893 700.043,695.56 699.5,695.5C 695.543,691.509 691.543,687.509 687.5,683.5C 687.027,682.094 686.027,681.427 684.5,681.5C 672.308,671.912 659.974,662.579 647.5,653.5C 647.027,652.094 646.027,651.427 644.5,651.5C 635.159,645.83 625.825,640.163 616.5,634.5C 616.027,633.094 615.027,632.427 613.5,632.5C 609.23,630.862 605.23,628.862 601.5,626.5C 601.027,625.094 600.027,624.427 598.5,624.5C 597.391,624.443 596.391,624.11 595.5,623.5C 595.027,622.094 594.027,621.427 592.5,621.5C 581.162,616.831 569.829,612.164 558.5,607.5C 558.047,606.542 557.381,605.708 556.5,605C 553.522,604.304 550.522,603.804 547.5,603.5C 535.024,601.216 531.691,594.549 537.5,583.5C 539.027,583.573 540.027,582.906 540.5,581.5C 541.568,580.566 542.901,580.232 544.5,580.5C 546.764,581.219 549.097,581.552 551.5,581.5C 559.767,583.589 567.767,586.256 575.5,589.5C 576.016,591.2 577.016,592.533 578.5,593.5C 580.727,592.947 583.061,592.947 585.5,593.5C 587.284,593.893 588.95,594.559 590.5,595.5C 590.389,596.117 590.056,596.617 589.5,597C 592.117,597.822 594.784,598.322 597.5,598.5C 608.143,602.819 618.143,608.152 627.5,614.5C 628.598,615.397 628.598,616.23 627.5,617C 630.521,617.849 633.521,618.683 636.5,619.5C 636.737,618.209 636.404,617.209 635.5,616.5C 634.766,615.292 634.433,613.959 634.5,612.5C 634.482,608.171 633.149,604.504 630.5,601.5C 628.435,596.304 626.768,590.97 625.5,585.5C 625.975,582.918 625.308,580.918 623.5,579.5C 611.228,540.083 599.728,500.416 589,460.5C 586.215,455.381 582.382,451.214 577.5,448C 569.859,442.684 561.859,438.184 553.5,434.5C 552.738,432.738 551.404,431.738 549.5,431.5C 544.69,418.14 549.357,412.307 563.5,414C 566.31,414.906 568.976,416.073 571.5,417.5C 573.185,421.29 576.185,423.29 580.5,423.5C 590.233,428.051 598.733,434.384 606,442.5C 608.684,446.863 610.518,451.53 611.5,456.5C 611.711,461.6 613.045,466.266 615.5,470.5C 615.41,473.152 616.076,475.485 617.5,477.5C 618.768,479.905 619.435,482.572 619.5,485.5C 619.41,488.152 620.076,490.485 621.5,492.5C 621.517,496.534 622.517,500.201 624.5,503.5C 625.768,505.905 626.435,508.572 626.5,511.5C 626.41,514.152 627.076,516.485 628.5,518.5C 629.434,519.568 629.768,520.901 629.5,522.5C 629.41,525.152 630.076,527.485 631.5,529.5C 633.074,532.907 634.074,536.573 634.5,540.5C 635.057,545.165 636.39,549.498 638.5,553.5C 638.723,557.162 639.723,560.495 641.5,563.5C 642.057,568.165 643.39,572.498 645.5,576.5C 645.804,579.522 646.304,582.522 647,585.5C 647.708,586.381 648.542,587.047 649.5,587.5C 649.5,587.833 649.5,588.167 649.5,588.5C 649.804,591.522 650.304,594.522 651,597.5C 651.708,598.381 652.542,599.047 653.5,599.5C 655.396,603.297 656.729,607.297 657.5,611.5C 657.621,615.456 658.621,619.122 660.5,622.5C 658.571,625.225 658.071,628.225 659,631.5C 660.79,623.649 661.79,623.982 662,632.5C 662.333,631.833 662.667,631.167 663,630.5C 663.424,633.025 664.59,635.025 666.5,636.5C 667.11,637.391 667.443,638.391 667.5,639.5C 667.5,641.5 668.5,642.5 670.5,642.5C 682.038,650.105 693.038,658.438 703.5,667.5C 703.5,669.5 704.5,670.5 706.5,670.5C 715.908,678.572 724.241,687.572 731.5,697.5C 731.427,699.027 732.094,700.027 733.5,700.5C 733.427,702.027 734.094,703.027 735.5,703.5C 737.684,709.145 736.351,713.812 731.5,717.5C 675.35,718.146 619.35,718.813 563.5,719.5C 525.638,721.967 489.638,731.633 455.5,748.5C 457.366,758.249 454.032,765.582 445.5,770.5C 418.5,770.5 391.5,770.5 364.5,770.5C 364.5,769.833 364.167,769.5 363.5,769.5C 363.027,768.094 362.027,767.427 360.5,767.5C 359.5,767.167 358.833,766.5 358.5,765.5C 358.408,763.152 357.408,761.486 355.5,760.5C 354.652,756.614 354.318,752.781 354.5,749C 342.601,742.715 330.267,737.548 317.5,733.5C 315.383,731.345 312.716,730.345 309.5,730.5C 305.035,729.967 300.702,728.967 296.5,727.5C 294.162,725.96 291.495,725.294 288.5,725.5C 286.097,725.552 283.764,725.219 281.5,724.5C 276.203,722.126 270.537,721.126 264.5,721.5C 256.832,721.095 249.165,720.595 241.5,720C 186.167,719.667 130.833,719.333 75.5,719C 70.679,716.677 68.0124,712.844 67.5,707.5C 68.6341,703.519 70.4675,699.852 73,696.5C 88.4967,677.169 106.663,660.835 127.5,647.5C 129.833,647.167 131.167,645.833 131.5,643.5C 156.729,567.257 178.229,489.923 196,411.5C 197.306,408.379 199.14,405.713 201.5,403.5C 203.749,402.92 205.415,401.587 206.5,399.5C 207.987,398.196 209.654,397.03 211.5,396C 226.896,390.258 242.229,384.425 257.5,378.5C 261.162,378.277 264.495,377.277 267.5,375.5C 270.444,374.412 273.444,374.412 276.5,375.5 Z M 270.5,399.5 C 273.652,398.959 276.152,399.959 278,402.5C 284.667,411.329 291.5,419.996 298.5,428.5C 299.234,429.708 299.567,431.041 299.5,432.5C 294.667,440.218 288.667,441.218 281.5,435.5C 280.5,433.833 279.167,432.5 277.5,431.5C 275.183,427.854 272.516,424.52 269.5,421.5C 268.92,419.251 267.587,417.585 265.5,416.5C 265.262,414.596 264.262,413.262 262.5,412.5C 261.92,410.251 260.587,408.585 258.5,407.5C 258.167,406.167 257.833,404.833 257.5,403.5C 262.176,402.939 266.509,401.606 270.5,399.5 Z M 242.5,421.5 C 243.786,424.117 245.453,426.45 247.5,428.5C 252.411,434.585 256.744,441.085 260.5,448C 260.011,449.138 259.678,450.305 259.5,451.5C 257.833,452.5 256.5,453.833 255.5,455.5C 252.813,455.664 250.146,455.497 247.5,455C 245.963,453.293 244.296,451.793 242.5,450.5C 242.573,448.973 241.906,447.973 240.5,447.5C 238.565,443.293 235.898,439.627 232.5,436.5C 230.984,433.467 228.984,430.8 226.5,428.5C 225.92,426.251 224.587,424.585 222.5,423.5C 221.925,421.589 220.925,419.922 219.5,418.5C 224.55,417.039 229.55,415.372 234.5,413.5C 237.173,416.2 239.84,418.867 242.5,421.5 Z M 247.5,517.5 C 248.497,538.66 248.831,559.993 248.5,581.5C 242.929,582.912 237.596,584.912 232.5,587.5C 229.256,588.463 226.256,589.796 223.5,591.5C 202.288,600.103 182.288,610.77 163.5,623.5C 162.903,623.265 162.57,622.765 162.5,622C 163.609,618.176 164.609,614.343 165.5,610.5C 169.97,598.756 173.637,586.756 176.5,574.5C 177.612,572.401 178.279,570.067 178.5,567.5C 179.894,563.447 181.228,559.28 182.5,555C 200.399,544.221 218.399,533.721 236.5,523.5C 237.925,525.031 238.591,524.698 238.5,522.5C 241.696,521.071 244.696,519.405 247.5,517.5 Z M 247.5,605.5 C 248.492,635.76 248.825,666.093 248.5,696.5C 246.833,696.5 245.167,696.5 243.5,696.5C 196.997,696.832 150.664,696.499 104.5,695.5C 141.593,662.772 182.593,635.772 227.5,614.5C 230.485,613.674 233.151,612.341 235.5,610.5C 239.504,608.831 243.504,607.164 247.5,605.5 Z M 419.5,745.5 C 419.631,746.376 419.298,747.043 418.5,747.5C 417.473,746.209 416.473,746.209 415.5,747.5C 407.167,746.833 398.833,746.167 390.5,745.5C 395.103,740.395 399.936,735.395 405,730.5C 410.064,735.395 414.897,740.395 419.5,745.5 Z"/></g>
<g><path style="opacity:1" fill="#afb4b8" d="M 276.5,375.5 C 280.102,375.692 283.102,377.026 285.5,379.5C 283.54,378.862 281.707,378.862 280,379.5C 278.968,377.973 277.801,376.64 276.5,375.5 Z"/></g>
<g><path style="opacity:0.451" fill="#78767f" d="M 286.5,379.5 C 288.262,380.262 289.262,381.596 289.5,383.5C 287.738,382.738 286.738,381.404 286.5,379.5 Z"/></g>
<g><path style="opacity:0.067" fill="#3c4047" d="M 364.5,379.5 C 365.167,380.167 365.833,380.833 366.5,381.5C 366.44,382.043 366.107,382.376 365.5,382.5C 364.614,381.675 364.281,380.675 364.5,379.5 Z"/></g>
<g><path style="opacity:0.998" fill="#ececee" d="M 623.5,387.5 C 623.685,389.196 624.519,390.529 626,391.5C 626.497,393.81 626.663,396.143 626.5,398.5C 625.351,402.003 622.851,403.669 619,403.5C 611.572,402.731 608.905,398.731 611,391.5C 612.664,387.916 615.497,386.249 619.5,386.5C 621.045,386.511 622.378,386.844 623.5,387.5 Z"/></g>
<g><path style="opacity:0.757" fill="#a4a4af" d="M 623.5,387.5 C 627.482,390.357 628.482,394.024 626.5,398.5C 626.663,396.143 626.497,393.81 626,391.5C 624.519,390.529 623.685,389.196 623.5,387.5 Z"/></g>
<g><path style="opacity:0.404" fill="#86848c" d="M 328.5,390.5 C 330.027,390.427 331.027,391.094 331.5,392.5C 329.973,392.573 328.973,391.906 328.5,390.5 Z"/></g>
<g><path style="opacity:0.776" fill="#959499" d="M 341.5,395.5 C 345.182,395.335 348.848,395.501 352.5,396C 353.056,396.383 353.389,396.883 353.5,397.5C 349.358,396.96 345.358,396.294 341.5,395.5 Z"/></g>
<g><path style="opacity:0.639" fill="#8b8b96" d="M 300.5,396.5 C 302.587,397.585 303.92,399.251 304.5,401.5C 302.413,400.415 301.08,398.749 300.5,396.5 Z"/></g>
<g><path style="opacity:1" fill="#b6b4bb" d="M 270.5,399.5 C 266.509,401.606 262.176,402.939 257.5,403.5C 257.611,402.883 257.944,402.383 258.5,402C 262.371,400.488 266.371,399.655 270.5,399.5 Z"/></g>
<g><path style="opacity:0.749" fill="#a7a7ac" d="M 206.5,399.5 C 205.415,401.587 203.749,402.92 201.5,403.5C 202.585,401.413 204.251,400.08 206.5,399.5 Z"/></g>
<g><path style="opacity:0.639" fill="#8e8e97" d="M 304.5,401.5 C 306.262,402.262 307.262,403.596 307.5,405.5C 305.738,404.738 304.738,403.404 304.5,401.5 Z"/></g>
<g><path style="opacity:0.999" fill="#f3f4f6" d="M 75.5,407.5 C 76.5082,409.544 77.5082,411.544 78.5,413.5C 78.1977,417.79 78.8643,421.79 80.5,425.5C 80.5,426.167 80.5,426.833 80.5,427.5C 80.1164,431.489 80.783,435.155 82.5,438.5C 84.3179,446.108 85.9846,453.775 87.5,461.5C 87.4095,464.152 88.0762,466.485 89.5,468.5C 90.7384,470.214 91.405,472.214 91.5,474.5C 91.4095,477.152 92.0762,479.485 93.5,481.5C 95.5826,486.863 94.2493,491.363 89.5,495C 80.6627,498.499 74.8293,495.665 72,486.5C 63.6577,462.122 58.6577,437.122 57,411.5C 59.7978,404.352 64.9645,401.852 72.5,404C 74.4257,404.422 75.4257,405.589 75.5,407.5 Z"/></g>
<g><path style="opacity:1" fill="#f5f6f7" d="M 731.5,404.5 C 736.027,404.699 740.361,405.699 744.5,407.5C 746.92,410.846 747.586,414.513 746.5,418.5C 745.4,420.277 744.566,422.277 744,424.5C 743.501,429.489 743.334,434.489 743.5,439.5C 742.951,446.025 741.618,452.358 739.5,458.5C 737.025,461.251 736.025,464.584 736.5,468.5C 736.279,471.067 735.612,473.401 734.5,475.5C 732.59,478.452 731.59,481.786 731.5,485.5C 729.815,494.998 724.482,498.332 715.5,495.5C 714.738,493.738 713.404,492.738 711.5,492.5C 710.273,490.097 709.273,487.597 708.5,485C 711.074,476.713 713.741,468.547 716.5,460.5C 717.924,458.485 718.59,456.152 718.5,453.5C 721.456,439.975 723.623,426.308 725,412.5C 725.576,408.434 727.743,405.767 731.5,404.5 Z"/></g>
<g><path style="opacity:0.961" fill="#b5b7ba" d="M 731.5,404.5 C 736.52,402.539 740.853,403.539 744.5,407.5C 740.361,405.699 736.027,404.699 731.5,404.5 Z"/></g>
<g><path style="opacity:0.999" fill="#efeff0" d="M 689.5,424.5 C 689.987,425.473 690.487,426.473 691,427.5C 692.978,426.184 694.478,426.684 695.5,429C 694.584,429.278 693.918,429.778 693.5,430.5C 676.216,434.011 667.049,444.678 666,462.5C 665.221,465.097 664.721,465.097 664.5,462.5C 664.664,459.813 664.497,457.146 664,454.5C 663.617,453.944 663.117,453.611 662.5,453.5C 659.701,442.699 653.035,435.366 642.5,431.5C 640.485,430.076 638.152,429.41 635.5,429.5C 633.265,429.795 631.265,429.461 629.5,428.5C 631.629,427.797 633.629,426.797 635.5,425.5C 639.818,424.172 644.151,422.839 648.5,421.5C 650.027,421.573 651.027,420.906 651.5,419.5C 655.269,416.664 658.102,412.998 660,408.5C 662.073,402.947 663.74,397.28 665,391.5C 666.608,399.986 669.608,407.986 674,415.5C 678.489,419.662 683.656,422.662 689.5,424.5 Z"/></g>
<g><path style="opacity:0.859" fill="#a5a6ab" d="M 433.5,404.5 C 434.222,404.918 434.722,405.584 435,406.5C 435.499,410.486 435.666,414.486 435.5,418.5C 434.659,413.99 433.992,409.324 433.5,404.5 Z"/></g>
<g><path style="opacity:0.655" fill="#8a8892" d="M 258.5,407.5 C 260.587,408.585 261.92,410.251 262.5,412.5C 260.413,411.415 259.08,409.749 258.5,407.5 Z"/></g>
<g><path style="opacity:1" fill="#d2d2da" d="M 411.5,395.5 C 414.479,401.779 416.479,408.446 417.5,415.5C 416.85,415.196 416.183,414.863 415.5,414.5C 414.851,410.389 413.517,406.556 411.5,403C 412.136,400.606 412.136,398.106 411.5,395.5 Z"/></g>
<g><path style="opacity:0.639" fill="#a2a2af" d="M 75.5,407.5 C 77.9754,408.687 78.9754,410.687 78.5,413.5C 77.5082,411.544 76.5082,409.544 75.5,407.5 Z"/></g>
<g><path style="opacity:0.635" fill="#8d8c92" d="M 262.5,412.5 C 264.262,413.262 265.262,414.596 265.5,416.5C 263.738,415.738 262.738,414.404 262.5,412.5 Z"/></g>
<g><path style="opacity:0.388" fill="#7c7b89" d="M 312.5,411.5 C 313.906,411.973 314.573,412.973 314.5,414.5C 313.094,414.027 312.427,413.027 312.5,411.5 Z"/></g>
<g><path style="opacity:1" fill="#afafbb" d="M 136.5,414.5 C 141.122,412.499 144.455,413.832 146.5,418.5C 143.689,416.058 140.356,414.725 136.5,414.5 Z"/></g>
<g><path style="opacity:0.827" fill="#a2a7ac" d="M 487.5,412.5 C 487.279,415.067 486.612,417.401 485.5,419.5C 485.338,417.473 485.505,415.473 486,413.5C 486.383,412.944 486.883,412.611 487.5,412.5 Z"/></g>
<g><path style="opacity:0.451" fill="#86878b" d="M 314.5,414.5 C 316.262,415.262 317.262,416.596 317.5,418.5C 315.738,417.738 314.738,416.404 314.5,414.5 Z"/></g>
<g><path style="opacity:0.745" fill="#99979d" d="M 265.5,416.5 C 267.587,417.585 268.92,419.251 269.5,421.5C 267.413,420.415 266.08,418.749 265.5,416.5 Z"/></g>
<g><path style="opacity:0.569" fill="#84828b" d="M 219.5,418.5 C 220.925,419.922 221.925,421.589 222.5,423.5C 219.913,422.352 218.913,420.685 219.5,418.5 Z"/></g>
<g><path style="opacity:0.667" fill="#8f939b" d="M 78.5,413.5 C 79.6167,417.295 80.2833,421.295 80.5,425.5C 78.8643,421.79 78.1977,417.79 78.5,413.5 Z"/></g>
<g><path style="opacity:0.569" fill="#84848c" d="M 651.5,419.5 C 651.027,420.906 650.027,421.573 648.5,421.5C 648.973,420.094 649.973,419.427 651.5,419.5 Z"/></g>
<g><path style="opacity:0.994" fill="#e5e6e8" d="M 136.5,414.5 C 140.356,414.725 143.689,416.058 146.5,418.5C 147.806,426.024 144.473,429.191 136.5,428C 130.074,423.401 130.074,418.901 136.5,414.5 Z"/></g>
<g><path style="opacity:1" fill="#b5b7bc" d="M 571.5,417.5 C 575.054,418.769 578.054,420.769 580.5,423.5C 576.185,423.29 573.185,421.29 571.5,417.5 Z"/></g>
<g><path style="opacity:0.931" fill="#c0bec5" d="M 242.5,421.5 C 246.371,422.645 248.037,424.979 247.5,428.5C 245.453,426.45 243.786,424.117 242.5,421.5 Z"/></g>
<g><path style="opacity:1" fill="#bdc3cc" d="M 746.5,418.5 C 746.223,425.737 745.223,432.737 743.5,439.5C 743.334,434.489 743.501,429.489 744,424.5C 744.566,422.277 745.4,420.277 746.5,418.5 Z"/></g>
<g><path style="opacity:0.561" fill="#908e98" d="M 222.5,423.5 C 224.587,424.585 225.92,426.251 226.5,428.5C 224.413,427.415 223.08,425.749 222.5,423.5 Z"/></g>
<g><path style="opacity:0.958" fill="#b9bac0" d="M 689.5,424.5 C 694.168,425.601 698.835,426.768 703.5,428C 700.353,429.362 697.02,430.195 693.5,430.5C 693.918,429.778 694.584,429.278 695.5,429C 694.478,426.684 692.978,426.184 691,427.5C 690.487,426.473 689.987,425.473 689.5,424.5 Z"/></g>
<g><path style="opacity:0.576" fill="#9f9fa8" d="M 635.5,425.5 C 633.629,426.797 631.629,427.797 629.5,428.5C 628.127,428.657 626.793,428.49 625.5,428C 628.721,426.722 632.054,425.889 635.5,425.5 Z"/></g>
<g><path style="opacity:0.396" fill="#7b7c85" d="M 320.5,426.5 C 321.161,428.134 321.494,429.967 321.5,432C 321.64,435.15 320.973,437.983 319.5,440.5C 320.229,435.87 320.563,431.203 320.5,426.5 Z"/></g>
<g><path style="opacity:0.722" fill="#a3a4a8" d="M 635.5,429.5 C 638.152,429.41 640.485,430.076 642.5,431.5C 639.848,431.59 637.515,430.924 635.5,429.5 Z"/></g>
<g><path style="opacity:0.184" fill="#717172" d="M 298.5,428.5 C 299.586,428.62 300.253,429.287 300.5,430.5C 300.457,431.416 300.124,432.083 299.5,432.5C 299.567,431.041 299.234,429.708 298.5,428.5 Z"/></g>
<g><path style="opacity:0.667" fill="#898692" d="M 549.5,431.5 C 551.404,431.738 552.738,432.738 553.5,434.5C 551.596,434.262 550.262,433.262 549.5,431.5 Z"/></g>
<g><path style="opacity:1" fill="#c0bec7" d="M 226.5,428.5 C 228.984,430.8 230.984,433.467 232.5,436.5C 231.206,435.71 230.039,434.71 229,433.5C 228.667,433.833 228.333,434.167 228,434.5C 227.495,432.482 226.995,430.482 226.5,428.5 Z"/></g>
<g><path style="opacity:0.635" fill="#8a8892" d="M 277.5,431.5 C 279.167,432.5 280.5,433.833 281.5,435.5C 279.167,435.167 277.833,433.833 277.5,431.5 Z"/></g>
<g><path style="opacity:0.792" fill="#a0a5ae" d="M 80.5,427.5 C 81.5249,430.974 82.1916,434.64 82.5,438.5C 80.783,435.155 80.1164,431.489 80.5,427.5 Z"/></g>
<g><path style="opacity:0.541" fill="#8a888f" d="M 523.5,439.5 C 523.279,442.067 522.612,444.401 521.5,446.5C 521.171,443.772 521.837,441.438 523.5,439.5 Z"/></g>
<g><path style="opacity:1" fill="#bdbdc3" d="M 212.5,444.5 C 211.414,444.62 210.747,445.287 210.5,446.5C 209.628,450.333 208.628,453.999 207.5,457.5C 207.669,452.819 208.002,448.152 208.5,443.5C 210.099,443.232 211.432,443.566 212.5,444.5 Z"/></g>
<g><path style="opacity:0.451" fill="#87858c" d="M 240.5,447.5 C 241.906,447.973 242.573,448.973 242.5,450.5C 241.094,450.027 240.427,449.027 240.5,447.5 Z"/></g>
<g><path style="opacity:0.541" fill="#86878c" d="M 259.5,451.5 C 259.167,453.833 257.833,455.167 255.5,455.5C 256.5,453.833 257.833,452.5 259.5,451.5 Z"/></g>
<g><path style="opacity:1" fill="#a7a5ac" d="M 662.5,453.5 C 663.117,453.611 663.617,453.944 664,454.5C 664.497,457.146 664.664,459.813 664.5,462.5C 663.343,459.727 662.676,456.727 662.5,453.5 Z"/></g>
<g><path style="opacity:0.999" fill="#e9eaeb" d="M 134.5,457.5 C 135.62,461.472 135.62,465.472 134.5,469.5C 126.269,474.892 120.936,472.725 118.5,463C 120.042,455.79 124.376,453.123 131.5,455C 132.942,455.377 133.942,456.21 134.5,457.5 Z"/></g>
<g><path style="opacity:0.325" fill="#68676c" d="M 278.5,456.5 C 277.833,457.5 277.167,458.5 276.5,459.5C 276.238,458.022 276.571,456.689 277.5,455.5C 278.107,455.624 278.44,455.957 278.5,456.5 Z"/></g>
<g><path style="opacity:0.702" fill="#b0aeb4" d="M 718.5,453.5 C 718.59,456.152 717.924,458.485 716.5,460.5C 716.41,457.848 717.076,455.515 718.5,453.5 Z"/></g>
<g><path style="opacity:0.757" fill="#b5b6bd" d="M 739.5,458.5 C 739.101,462.116 738.101,465.45 736.5,468.5C 736.025,464.584 737.025,461.251 739.5,458.5 Z"/></g>
<g><path style="opacity:0.675" fill="#a6a7ae" d="M 134.5,457.5 C 135.117,457.611 135.617,457.944 136,458.5C 136.167,460 136.333,461.5 136.5,463C 136.664,465.544 135.997,467.71 134.5,469.5C 135.62,465.472 135.62,461.472 134.5,457.5 Z"/></g>
<g><path style="opacity:0.647" fill="#9799a5" d="M 87.5,461.5 C 88.9238,463.515 89.5905,465.848 89.5,468.5C 88.0762,466.485 87.4095,464.152 87.5,461.5 Z"/></g>
<g><path style="opacity:1" fill="#bcbcc5" d="M 207.5,459.5 C 206.406,464.673 205.072,469.673 203.5,474.5C 203.18,471.102 203.513,467.768 204.5,464.5C 205.065,462.456 206.065,460.79 207.5,459.5 Z"/></g>
<g><path style="opacity:0.729" fill="#a9adb3" d="M 611.5,456.5 C 613.435,460.895 614.769,465.562 615.5,470.5C 613.045,466.266 611.711,461.6 611.5,456.5 Z"/></g>
<g><path style="opacity:0.659" fill="#91959f" d="M 615.5,470.5 C 616.924,472.515 617.59,474.848 617.5,477.5C 616.076,475.485 615.41,473.152 615.5,470.5 Z"/></g>
<g><path style="opacity:0.494" fill="#8c8e93" d="M 485.5,473.5 C 485.573,475.027 484.906,476.027 483.5,476.5C 483.427,474.973 484.094,473.973 485.5,473.5 Z"/></g>
<g><path style="opacity:0.667" fill="#9495a0" d="M 91.5,474.5 C 92.9238,476.515 93.5905,478.848 93.5,481.5C 92.0762,479.485 91.4095,477.152 91.5,474.5 Z"/></g>
<g><path style="opacity:1" fill="#c4c2cb" d="M 203.5,475.5 C 202.945,479.397 201.945,483.063 200.5,486.5C 200.567,484.599 200.233,482.766 199.5,481C 199.944,479.238 200.444,479.405 201,481.5C 201.24,479.148 202.073,477.148 203.5,475.5 Z"/></g>
<g><path style="opacity:0.102" fill="#636365" d="M 423.5,479.5 C 423.263,480.791 423.596,481.791 424.5,482.5C 423.528,483.751 422.861,483.418 422.5,481.5C 422.543,480.584 422.876,479.917 423.5,479.5 Z"/></g>
<g><path style="opacity:0.494" fill="#9798a1" d="M 734.5,475.5 C 734.101,479.116 733.101,482.45 731.5,485.5C 731.59,481.786 732.59,478.452 734.5,475.5 Z"/></g>
<g><path style="opacity:0.443" fill="#8a8b91" d="M 340.5,484.5 C 340.573,486.027 339.906,487.027 338.5,487.5C 338.427,485.973 339.094,484.973 340.5,484.5 Z"/></g>
<g><path style="opacity:0.659" fill="#9b9ba8" d="M 619.5,485.5 C 620.924,487.515 621.59,489.848 621.5,492.5C 620.076,490.485 619.41,488.152 619.5,485.5 Z"/></g>
<g><path style="opacity:0.02" fill="#515258" d="M 361.5,489.5 C 360.833,490.167 360.167,490.833 359.5,491.5C 359.281,490.325 359.614,489.325 360.5,488.5C 361.107,488.624 361.44,488.957 361.5,489.5 Z"/></g>
<g><path style="opacity:0.667" fill="#8a8c8d" d="M 711.5,492.5 C 713.404,492.738 714.738,493.738 715.5,495.5C 713.596,495.262 712.262,494.262 711.5,492.5 Z"/></g>
<g><path style="opacity:0.008" fill="#282829" d="M 499.5,492.5 C 499.5,493.833 498.833,494.5 497.5,494.5C 497.833,493.5 498.5,492.833 499.5,492.5 Z"/></g>
<g><path style="opacity:0.729" fill="#9fa0a5" d="M 621.5,492.5 C 623.074,495.907 624.074,499.573 624.5,503.5C 622.517,500.201 621.517,496.534 621.5,492.5 Z"/></g>
<g><path style="opacity:0.867" fill="#a9b3b7" d="M 255.5,496.5 C 249.064,496.327 242.731,496.994 236.5,498.5C 242.609,495.492 248.942,494.826 255.5,496.5 Z"/></g>
<g><path style="opacity:0.686" fill="#9e9fa5" d="M 195.5,507.5 C 195.279,510.067 194.612,512.401 193.5,514.5C 193.171,511.772 193.837,509.438 195.5,507.5 Z"/></g>
<g><path style="opacity:0.946" fill="#b9bac1" d="M 433.5,512.5 C 436.738,512.349 439.071,513.682 440.5,516.5C 439.965,518.261 438.965,519.594 437.5,520.5C 437.146,518.459 437.146,516.626 437.5,515C 435.563,514.878 434.23,514.045 433.5,512.5 Z"/></g>
<g><path style="opacity:0.998" fill="#eeeef0" d="M 103.5,516.5 C 104.514,517.674 105.847,518.34 107.5,518.5C 107.833,518.5 108.167,518.5 108.5,518.5C 108.738,520.404 109.738,521.738 111.5,522.5C 114.396,527.984 113.73,533.15 109.5,538C 94.7725,543.217 88.2725,538.051 90,522.5C 93.3271,517.581 97.8271,515.581 103.5,516.5 Z"/></g>
<g><path style="opacity:0.333" fill="#83868b" d="M 103.5,516.5 C 105.38,516.229 106.713,516.896 107.5,518.5C 105.847,518.34 104.514,517.674 103.5,516.5 Z"/></g>
<g><path style="opacity:0.549" fill="#8c8e93" d="M 626.5,511.5 C 627.924,513.515 628.59,515.848 628.5,518.5C 627.076,516.485 626.41,514.152 626.5,511.5 Z"/></g>
<g><path style="opacity:1" fill="#f2f3f4" d="M 708.5,518.5 C 709.08,520.749 710.413,522.415 712.5,523.5C 715.543,533.201 712.043,538.868 702,540.5C 699.456,540.664 697.29,539.997 695.5,538.5C 695.027,537.094 694.027,536.427 692.5,536.5C 691.058,535.18 690.392,533.514 690.5,531.5C 690.452,528.708 691.785,526.875 694.5,526C 693.549,525.282 693.383,524.449 694,523.5C 695.167,521.667 696.667,520.167 698.5,519C 698.167,518.667 697.833,518.333 697.5,518C 701.203,517.421 704.869,517.588 708.5,518.5 Z"/></g>
<g><path style="opacity:0.667" fill="#919196" d="M 193.5,516.5 C 193.204,518.403 192.537,520.07 191.5,521.5C 191.12,519.302 191.787,517.635 193.5,516.5 Z"/></g>
<g><path style="opacity:1" fill="#c0c1c7" d="M 708.5,518.5 C 704.869,517.588 701.203,517.421 697.5,518C 697.833,518.333 698.167,518.667 698.5,519C 696.667,520.167 695.167,521.667 694,523.5C 693.383,524.449 693.549,525.282 694.5,526C 691.785,526.875 690.452,528.708 690.5,531.5C 688.595,522.04 692.595,516.707 702.5,515.5C 704.78,516.136 706.78,517.136 708.5,518.5 Z"/></g>
<g><path style="opacity:0.612" fill="#7a7a82" d="M 108.5,518.5 C 110.262,519.262 111.262,520.596 111.5,522.5C 109.738,521.738 108.738,520.404 108.5,518.5 Z"/></g>
<g><path style="opacity:0.71" fill="#95979e" d="M 708.5,518.5 C 710.587,519.585 711.92,521.251 712.5,523.5C 710.413,522.415 709.08,520.749 708.5,518.5 Z"/></g>
<g><path style="opacity:0.039" fill="#404145" d="M 236.5,523.5 C 236.842,522.662 237.508,522.328 238.5,522.5C 238.591,524.698 237.925,525.031 236.5,523.5 Z"/></g>
<g><path style="opacity:0.647" fill="#8e8f98" d="M 629.5,522.5 C 630.924,524.515 631.59,526.848 631.5,529.5C 630.076,527.485 629.41,525.152 629.5,522.5 Z"/></g>
<g><path style="opacity:0.343" fill="#84848a" d="M 247.5,517.5 C 247.56,516.957 247.893,516.624 248.5,516.5C 249.828,538.33 249.828,559.996 248.5,581.5C 248.831,559.993 248.497,538.66 247.5,517.5 Z"/></g>
<g><path style="opacity:0.38" fill="#898896" d="M 267.5,509.5 C 268.499,572.664 268.832,635.998 268.5,699.5C 265.664,699.798 265.164,699.131 267,697.5C 267.5,634.834 267.667,572.168 267.5,509.5 Z"/></g>
<g><path style="opacity:0.541" fill="#797a80" d="M 307.5,529.5 C 309.027,529.427 310.027,530.094 310.5,531.5C 308.973,531.573 307.973,530.906 307.5,529.5 Z"/></g>
<g><path style="opacity:0.584" fill="#aaabaf" d="M 310.5,531.5 C 313.482,531.963 316.482,532.296 319.5,532.5C 318.551,533.152 317.385,533.486 316,533.5C 313.779,533.607 311.946,532.94 310.5,531.5 Z"/></g>
<g><path style="opacity:1" fill="#aab0b4" d="M 576.5,535.5 C 579.64,534.359 582.973,534.192 586.5,535C 588.584,535.697 590.251,536.864 591.5,538.5C 588.873,537.895 586.207,537.395 583.5,537C 584.167,536.667 584.833,536.333 585.5,536C 582.518,535.502 579.518,535.335 576.5,535.5 Z"/></g>
<g><path style="opacity:0.584" fill="#838489" d="M 692.5,536.5 C 694.027,536.427 695.027,537.094 695.5,538.5C 693.973,538.573 692.973,537.906 692.5,536.5 Z"/></g>
<g><path style="opacity:1" fill="#adb2b8" d="M 574.5,535.5 C 569.17,537.667 563.503,538.667 557.5,538.5C 562.959,537.049 568.626,536.049 574.5,535.5 Z"/></g>
<g><path style="opacity:1" fill="#f4f5f5" d="M 574.5,535.5 C 575.167,535.5 575.833,535.5 576.5,535.5C 579.518,535.335 582.518,535.502 585.5,536C 584.833,536.333 584.167,536.667 583.5,537C 586.207,537.395 588.873,537.895 591.5,538.5C 595.282,542.891 595.449,547.558 592,552.5C 590.871,554.141 589.371,555.141 587.5,555.5C 586.508,555.328 585.842,555.662 585.5,556.5C 573.662,558.695 561.662,560.695 549.5,562.5C 546.102,562.18 542.768,562.513 539.5,563.5C 538.757,564.182 538.091,564.849 537.5,565.5C 519.591,570.025 501.925,575.358 484.5,581.5C 482.62,581.229 481.287,581.896 480.5,583.5C 456.23,593.221 435.063,607.554 417,626.5C 412.941,631.717 409.107,637.051 405.5,642.5C 398.93,632.925 391.597,623.925 383.5,615.5C 382.738,613.738 381.404,612.738 379.5,612.5C 375.854,610.183 372.52,607.516 369.5,604.5C 369.027,603.094 368.027,602.427 366.5,602.5C 366.027,601.094 365.027,600.427 363.5,600.5C 341.42,588.246 318.087,578.913 293.5,572.5C 287.959,567.547 287.126,561.88 291,555.5C 293.513,553.077 296.513,551.744 300,551.5C 318.163,555.5 335.663,561.166 352.5,568.5C 353.287,570.104 354.62,570.771 356.5,570.5C 362.347,572.221 367.68,574.888 372.5,578.5C 373.171,579.847 373.171,581.014 372.5,582C 375.509,581.84 377.675,583.007 379,585.5C 379.986,584.829 381.153,584.829 382.5,585.5C 387.428,588.099 391.761,591.432 395.5,595.5C 395.5,597.5 396.5,598.5 398.5,598.5C 400.814,600.477 403.147,602.477 405.5,604.5C 431.206,579.508 461.54,562.508 496.5,553.5C 502.166,552.61 507.5,550.943 512.5,548.5C 527.074,543.776 542.074,540.443 557.5,538.5C 563.503,538.667 569.17,537.667 574.5,535.5 Z"/></g>
<g><path style="opacity:0.792" fill="#9c9da4" d="M 634.5,540.5 C 636.61,544.502 637.943,548.835 638.5,553.5C 636.39,549.498 635.057,545.165 634.5,540.5 Z"/></g>
<g><path style="opacity:0.827" fill="#b6bbc0" d="M 512.5,548.5 C 507.5,550.943 502.166,552.61 496.5,553.5C 501.5,551.057 506.834,549.39 512.5,548.5 Z"/></g>
<g><path style="opacity:0.251" fill="#595d5c" d="M 585.5,556.5 C 585.842,555.662 586.508,555.328 587.5,555.5C 587.591,557.698 586.925,558.031 585.5,556.5 Z"/></g>
<g><path style="opacity:1" fill="#a6a6b1" d="M 133.5,559.5 C 129.317,558.093 124.984,557.426 120.5,557.5C 123.919,555.068 127.586,554.902 131.5,557C 132.756,557.417 133.423,558.25 133.5,559.5 Z"/></g>
<g><path style="opacity:0.675" fill="#8f8f98" d="M 638.5,553.5 C 640.277,556.505 641.277,559.838 641.5,563.5C 639.723,560.495 638.723,557.162 638.5,553.5 Z"/></g>
<g><path style="opacity:0.999" fill="#f1f2f4" d="M 120.5,557.5 C 124.984,557.426 129.317,558.093 133.5,559.5C 136.552,561.44 137.885,564.273 137.5,568C 137.676,572.823 135.676,576.323 131.5,578.5C 126.57,578.966 121.903,578.299 117.5,576.5C 113.541,572.529 112.708,567.862 115,562.5C 116.076,559.921 117.909,558.254 120.5,557.5 Z"/></g>
<g><path style="opacity:0.999" fill="#ebecee" d="M 683.5,557.5 C 684.5,559.833 686.167,561.5 688.5,562.5C 690.944,568.123 689.944,573.289 685.5,578C 677.841,582.337 671.674,580.837 667,573.5C 664.667,565.001 667.501,559.167 675.5,556C 678.482,555.297 681.149,555.797 683.5,557.5 Z"/></g>
<g><path style="opacity:0.702" fill="#98999e" d="M 683.5,557.5 C 686.167,558.167 687.833,559.833 688.5,562.5C 686.167,561.5 684.5,559.833 683.5,557.5 Z"/></g>
<g><path style="opacity:1" fill="#b5b7b9" d="M 549.5,562.5 C 545.736,563.992 541.736,564.992 537.5,565.5C 538.091,564.849 538.757,564.182 539.5,563.5C 542.768,562.513 546.102,562.18 549.5,562.5 Z"/></g>
<g><path style="opacity:0.675" fill="#93929e" d="M 641.5,563.5 C 643.61,567.502 644.943,571.835 645.5,576.5C 643.39,572.498 642.057,568.165 641.5,563.5 Z"/></g>
<g><path style="opacity:0.839" fill="#acacb7" d="M 178.5,567.5 C 178.279,570.067 177.612,572.401 176.5,574.5C 176.338,572.473 176.505,570.473 177,568.5C 177.383,567.944 177.883,567.611 178.5,567.5 Z"/></g>
<g><path style="opacity:0.541" fill="#8f9095" d="M 352.5,568.5 C 354.153,568.66 355.486,569.326 356.5,570.5C 354.62,570.771 353.287,570.104 352.5,568.5 Z"/></g>
<g><path style="opacity:1" fill="#b3b4b7" d="M 117.5,576.5 C 121.903,578.299 126.57,578.966 131.5,578.5C 126.287,581.59 121.62,580.924 117.5,576.5 Z"/></g>
<g><path style="opacity:1" fill="#b0aeb7" d="M 623.5,579.5 C 625.308,580.918 625.975,582.918 625.5,585.5C 624.262,583.786 623.595,581.786 623.5,579.5 Z"/></g>
<g><path style="opacity:0.694" fill="#92929b" d="M 544.5,580.5 C 544.735,579.903 545.235,579.57 546,579.5C 548.03,579.954 549.863,580.62 551.5,581.5C 549.097,581.552 546.764,581.219 544.5,580.5 Z"/></g>
<g><path style="opacity:0.035" fill="#6e6d72" d="M 484.5,581.5 C 483.486,582.674 482.153,583.34 480.5,583.5C 481.287,581.896 482.62,581.229 484.5,581.5 Z"/></g>
<g><path style="opacity:0.604" fill="#8c8d97" d="M 540.5,581.5 C 540.027,582.906 539.027,583.573 537.5,583.5C 537.973,582.094 538.973,581.427 540.5,581.5 Z"/></g>
<g><path style="opacity:1" fill="#bcbdc2" d="M 372.5,578.5 C 376.221,580.354 379.554,582.687 382.5,585.5C 381.153,584.829 379.986,584.829 379,585.5C 377.675,583.007 375.509,581.84 372.5,582C 373.171,581.014 373.171,579.847 372.5,578.5 Z"/></g>
<g><path style="opacity:1" fill="#bbbbc2" d="M 645.5,576.5 C 647.204,579.939 648.538,583.605 649.5,587.5C 648.542,587.047 647.708,586.381 647,585.5C 646.304,582.522 645.804,579.522 645.5,576.5 Z"/></g>
<g><path style="opacity:0.839" fill="#bfc1c5" d="M 232.5,587.5 C 230.723,589.08 228.89,590.746 227,592.5C 225.989,591.663 224.822,591.33 223.5,591.5C 226.256,589.796 229.256,588.463 232.5,587.5 Z"/></g>
<g><path style="opacity:1" fill="#babcbd" d="M 575.5,589.5 C 579.127,590.321 582.46,591.654 585.5,593.5C 583.061,592.947 580.727,592.947 578.5,593.5C 577.016,592.533 576.016,591.2 575.5,589.5 Z"/></g>
<g><path style="opacity:0.612" fill="#86868e" d="M 395.5,595.5 C 396.833,596.167 397.833,597.167 398.5,598.5C 396.5,598.5 395.5,597.5 395.5,595.5 Z"/></g>
<g><path style="opacity:1" fill="#a4a5aa" d="M 590.5,595.5 C 593.018,596.264 595.351,597.264 597.5,598.5C 594.784,598.322 592.117,597.822 589.5,597C 590.056,596.617 590.389,596.117 590.5,595.5 Z"/></g>
<g><path style="opacity:1" fill="#bababe" d="M 649.5,588.5 C 651.204,591.939 652.538,595.605 653.5,599.5C 652.542,599.047 651.708,598.381 651,597.5C 650.304,594.522 649.804,591.522 649.5,588.5 Z"/></g>
<g><path style="opacity:0.478" fill="#908e97" d="M 363.5,600.5 C 365.027,600.427 366.027,601.094 366.5,602.5C 364.973,602.573 363.973,601.906 363.5,600.5 Z"/></g>
<g><path style="opacity:0.486" fill="#8c8a93" d="M 366.5,602.5 C 368.027,602.427 369.027,603.094 369.5,604.5C 367.973,604.573 366.973,603.906 366.5,602.5 Z"/></g>
<g><path style="opacity:1" fill="#bbbabe" d="M 547.5,603.5 C 550.522,603.804 553.522,604.304 556.5,605C 557.381,605.708 558.047,606.542 558.5,607.5C 554.605,606.538 550.939,605.204 547.5,603.5 Z"/></g>
<g><path style="opacity:0.765" fill="#bdbdc0" d="M 630.5,601.5 C 633.149,604.504 634.482,608.171 634.5,612.5C 632.796,609.061 631.462,605.395 630.5,601.5 Z"/></g>
<g><path style="opacity:1" fill="#c2c3c8" d="M 235.5,610.5 C 233.151,612.341 230.485,613.674 227.5,614.5C 227.577,613.25 228.244,612.417 229.5,612C 229.167,611.667 228.833,611.333 228.5,611C 229.549,610.508 230.549,610.674 231.5,611.5C 231.833,610.833 232.167,610.167 232.5,609.5C 233.417,610.127 234.417,610.461 235.5,610.5 Z"/></g>
<g><path style="opacity:0.604" fill="#8b8a8f" d="M 379.5,612.5 C 381.404,612.738 382.738,613.738 383.5,615.5C 381.596,615.262 380.262,614.262 379.5,612.5 Z"/></g>
<g><path style="opacity:1" fill="#bfc0c5" d="M 165.5,610.5 C 164.609,614.343 163.609,618.176 162.5,622C 162.57,622.765 162.903,623.265 163.5,623.5C 163.631,624.376 163.298,625.043 162.5,625.5C 162.167,623.833 161.833,622.167 161.5,620.5C 161.752,616.534 163.086,613.2 165.5,610.5 Z"/></g>
<g><path style="opacity:0.722" fill="#919198" d="M 627.5,614.5 C 630.342,615.172 632.842,616.506 635,618.5C 635.464,617.906 635.631,617.239 635.5,616.5C 636.404,617.209 636.737,618.209 636.5,619.5C 633.521,618.683 630.521,617.849 627.5,617C 628.598,616.23 628.598,615.397 627.5,614.5 Z"/></g>
<g><path style="opacity:0.235" fill="#6f6d74" d="M 592.5,621.5 C 594.027,621.427 595.027,622.094 595.5,623.5C 593.973,623.573 592.973,622.906 592.5,621.5 Z"/></g>
<g><path style="opacity:1" fill="#cfd2d6" d="M 657.5,611.5 C 660.674,619.682 663.674,628.016 666.5,636.5C 664.59,635.025 663.424,633.025 663,630.5C 662.667,631.167 662.333,631.833 662,632.5C 661.79,623.982 660.79,623.649 659,631.5C 658.071,628.225 658.571,625.225 660.5,622.5C 658.621,619.122 657.621,615.456 657.5,611.5 Z"/></g>
<g><path style="opacity:0.29" fill="#797682" d="M 598.5,624.5 C 600.027,624.427 601.027,625.094 601.5,626.5C 599.973,626.573 598.973,625.906 598.5,624.5 Z"/></g>
<g><path style="opacity:0.403" fill="#909197" d="M 243.5,697.5 C 243.5,697.167 243.5,696.833 243.5,696.5C 245.167,696.5 246.833,696.5 248.5,696.5C 248.825,666.093 248.492,635.76 247.5,605.5C 247.56,604.957 247.893,604.624 248.5,604.5C 249.5,635.493 249.833,666.493 249.5,697.5C 247.5,697.5 245.5,697.5 243.5,697.5 Z"/></g>
<g><path style="opacity:0.451" fill="#8b8990" d="M 613.5,632.5 C 615.027,632.427 616.027,633.094 616.5,634.5C 614.973,634.573 613.973,633.906 613.5,632.5 Z"/></g>
<g><path style="opacity:0.514" fill="#777684" d="M 667.5,639.5 C 668.833,640.167 669.833,641.167 670.5,642.5C 668.5,642.5 667.5,641.5 667.5,639.5 Z"/></g>
<g><path style="opacity:0.494" fill="#86858b" d="M 131.5,643.5 C 131.167,645.833 129.833,647.167 127.5,647.5C 128.5,645.833 129.833,644.5 131.5,643.5 Z"/></g>
<g><path style="opacity:1" fill="#c1c7cc" d="M 509.5,643.5 C 502.131,645.838 494.464,647.171 486.5,647.5C 493.913,645.437 501.579,644.104 509.5,643.5 Z"/></g>
<g><path style="opacity:1" fill="#c1c7ca" d="M 307.5,644.5 C 315.776,645.421 323.776,647.087 331.5,649.5C 329.08,649.292 326.747,649.626 324.5,650.5C 319.92,647.658 315.087,646.658 310,647.5C 309.302,646.309 308.469,645.309 307.5,644.5 Z"/></g>
<g><path style="opacity:0.686" fill="#a5a6ab" d="M 289.5,645.5 C 288.396,647.389 287.063,649.055 285.5,650.5C 285.67,647.796 287.003,646.129 289.5,645.5 Z"/></g>
<g><path style="opacity:0.71" fill="#9da3a5" d="M 481.5,648.5 C 479.485,649.924 477.152,650.59 474.5,650.5C 476.515,649.076 478.848,648.41 481.5,648.5 Z"/></g>
<g><path style="opacity:0.647" fill="#9ba0a3" d="M 333.5,649.5 C 336.397,650.129 339.064,651.129 341.5,652.5C 338.284,652.655 335.617,651.655 333.5,649.5 Z"/></g>
<g><path style="opacity:0.702" fill="#a6a7ab" d="M 527.5,649.5 C 530.08,653.838 529.413,657.838 525.5,661.5C 526.799,657.63 527.466,653.63 527.5,649.5 Z"/></g>
<g><path style="opacity:0.467" fill="#8f8d93" d="M 644.5,651.5 C 646.027,651.427 647.027,652.094 647.5,653.5C 645.973,653.573 644.973,652.906 644.5,651.5 Z"/></g>
<g><path style="opacity:0.486" fill="#706e74" d="M 703.5,667.5 C 704.833,668.167 705.833,669.167 706.5,670.5C 704.5,670.5 703.5,669.5 703.5,667.5 Z"/></g>
<g><path style="opacity:1" fill="#afadb3" d="M 467.5,676.5 C 465.75,677.87 463.75,678.87 461.5,679.5C 461.5,678.5 461.5,677.5 461.5,676.5C 463.5,676.5 465.5,676.5 467.5,676.5 Z"/></g>
<g><path style="opacity:0.659" fill="#8f8d96" d="M 684.5,681.5 C 686.027,681.427 687.027,682.094 687.5,683.5C 685.973,683.573 684.973,682.906 684.5,681.5 Z"/></g>
<g><path style="opacity:0.643" fill="#d0d4dc" d="M 104.5,695.5 C 150.664,696.499 196.997,696.832 243.5,696.5C 243.5,696.833 243.5,697.167 243.5,697.5C 196.829,697.833 150.162,697.5 103.5,696.5C 103.624,695.893 103.957,695.56 104.5,695.5 Z"/></g>
<g><path style="opacity:0.78" fill="#d1d8dd" d="M 699.5,695.5 C 700.043,695.56 700.376,695.893 700.5,696.5C 652.171,697.5 603.838,697.833 555.5,697.5C 603.5,696.833 651.5,696.167 699.5,695.5 Z"/></g>
<g><path style="opacity:0.549" fill="#82828e" d="M 731.5,697.5 C 732.906,697.973 733.573,698.973 733.5,700.5C 732.094,700.027 731.427,699.027 731.5,697.5 Z"/></g>
<g><path style="opacity:0.784" fill="#9fa5a9" d="M 545.5,698.5 C 538.399,700.228 531.066,701.228 523.5,701.5C 530.601,699.772 537.934,698.772 545.5,698.5 Z"/></g>
<g><path style="opacity:1" fill="#b2b7bb" d="M 269.5,699.5 C 274.049,699.624 278.382,700.291 282.5,701.5C 278.649,700.971 275.149,701.638 272,703.5C 271.52,701.867 270.687,700.534 269.5,699.5 Z"/></g>
<g><path style="opacity:1" fill="#9e9ea5" d="M 283.5,701.5 C 288.444,701.754 293.111,702.754 297.5,704.5C 293.165,704.083 288.832,703.583 284.5,703C 283.944,702.617 283.611,702.117 283.5,701.5 Z"/></g>
<g><path style="opacity:0.361" fill="#858592" d="M 733.5,700.5 C 734.906,700.973 735.573,701.973 735.5,703.5C 734.094,703.027 733.427,702.027 733.5,700.5 Z"/></g>
<g><path style="opacity:0.043" fill="#5c5d62" d="M 385.5,703.5 C 386.906,703.973 387.573,704.973 387.5,706.5C 386.094,706.027 385.427,705.027 385.5,703.5 Z"/></g>
<g><path style="opacity:0.596" fill="#888e90" d="M 299.5,704.5 C 302.067,704.721 304.401,705.388 306.5,706.5C 303.772,706.829 301.438,706.163 299.5,704.5 Z"/></g>
<g><path style="opacity:0.729" fill="#a3a7ae" d="M 505.5,705.5 C 503.485,706.924 501.152,707.59 498.5,707.5C 500.515,706.076 502.848,705.41 505.5,705.5 Z"/></g>
<g><path style="opacity:0.604" fill="#8b9095" d="M 307.5,706.5 C 311.116,706.899 314.45,707.899 317.5,709.5C 313.786,709.41 310.452,708.41 307.5,706.5 Z"/></g>
<g><path style="opacity:0.008" fill="#626a6f" d="M 317.5,709.5 C 319.898,709.259 321.898,709.926 323.5,711.5C 321.214,711.405 319.214,710.738 317.5,709.5 Z"/></g>
<g><path style="opacity:0.325" fill="#6f7075" d="M 416.5,713.5 C 417.833,714.167 419.167,714.833 420.5,715.5C 418.712,715.785 417.045,715.452 415.5,714.5C 415.624,713.893 415.957,713.56 416.5,713.5 Z"/></g>
<g><path style="opacity:0.627" fill="#c6c6c6" d="M 731.5,717.5 C 730.737,718.268 729.737,718.768 728.5,719C 673.501,719.5 618.501,719.667 563.5,719.5C 619.35,718.813 675.35,718.146 731.5,717.5 Z"/></g>
<g><path style="opacity:1" fill="#acabaf" d="M 264.5,721.5 C 270.537,721.126 276.203,722.126 281.5,724.5C 275.626,723.951 269.959,722.951 264.5,721.5 Z"/></g>
<g><path style="opacity:0.388" fill="#76777c" d="M 349.5,720.5 C 351.153,720.66 352.486,721.326 353.5,722.5C 351.62,722.771 350.287,722.104 349.5,720.5 Z"/></g>
<g><path style="opacity:1" fill="#c2c3c8" d="M 428.5,721.5 C 430.914,722.911 432.581,724.911 433.5,727.5C 431.958,726.699 430.292,726.366 428.5,726.5C 428.5,724.833 428.5,723.167 428.5,721.5 Z"/></g>
<g><path style="opacity:0.576" fill="#9d9ba1" d="M 288.5,725.5 C 291.495,725.294 294.162,725.96 296.5,727.5C 293.572,727.435 290.905,726.768 288.5,725.5 Z"/></g>
<g><path style="opacity:0.639" fill="#85868a" d="M 364.5,727.5 C 366.23,728.026 367.564,729.026 368.5,730.5C 366.368,730.446 365.035,729.446 364.5,727.5 Z"/></g>
<g><path style="opacity:0.702" fill="#939298" d="M 309.5,730.5 C 312.716,730.345 315.383,731.345 317.5,733.5C 314.603,732.871 311.936,731.871 309.5,730.5 Z"/></g>
<g><path style="opacity:0.09" fill="#383940" d="M 390.5,745.5 C 398.833,746.167 407.167,746.833 415.5,747.5C 406.651,747.826 397.984,747.493 389.5,746.5C 389.5,745.833 389.833,745.5 390.5,745.5 Z"/></g>
<g><path style="opacity:1" fill="#d1d2d6" d="M 419.5,745.5 C 420.404,746.209 420.737,747.209 420.5,748.5C 409.813,748.832 399.146,748.499 388.5,747.5C 388.624,746.893 388.957,746.56 389.5,746.5C 397.984,747.493 406.651,747.826 415.5,747.5C 416.473,746.209 417.473,746.209 418.5,747.5C 419.298,747.043 419.631,746.376 419.5,745.5 Z"/></g>
<g><path style="opacity:0.8" fill="#a9a7ad" d="M 355.5,760.5 C 357.408,761.486 358.408,763.152 358.5,765.5C 356.75,764.341 355.75,762.674 355.5,760.5 Z"/></g>
<g><path style="opacity:0.188" fill="#646170" d="M 360.5,767.5 C 362.027,767.427 363.027,768.094 363.5,769.5C 361.973,769.573 360.973,768.906 360.5,767.5 Z"/></g>
</svg>
